<mxfile host="app.diagrams.net" agent="Mozilla/5.0 (X11; Linux x86_64) AppleWebKit/537.36 (KHTML, like Gecko) Chrome/136.0.0.0 Safari/537.36" version="26.2.14">
  <diagram name="Page-1" id="-H_mtQnk-PTXWXPvYvuk">
    <mxGraphModel dx="1593" dy="798" grid="1" gridSize="10" guides="1" tooltips="1" connect="1" arrows="1" fold="1" page="1" pageScale="1" pageWidth="1169" pageHeight="827" math="0" shadow="0">
      <root>
        <mxCell id="0" />
        <mxCell id="1" parent="0" />
        <mxCell id="lrtOGTi42sTW7biP3XFJ-108" value="" style="rounded=1;whiteSpace=wrap;html=1;fillColor=#E7FF51;" vertex="1" parent="1">
          <mxGeometry x="19" y="2020" width="1150" height="560" as="geometry" />
        </mxCell>
        <mxCell id="zA23MoTUsTF4_91t8viU-2" value="MongoDB" style="shape=cylinder3;whiteSpace=wrap;html=1;boundedLbl=1;backgroundOutline=1;size=15;" parent="1" vertex="1">
          <mxGeometry x="550" y="190" width="60" height="80" as="geometry" />
        </mxCell>
        <mxCell id="zA23MoTUsTF4_91t8viU-3" value="pymongo-api" style="rounded=1;whiteSpace=wrap;html=1;" parent="1" vertex="1">
          <mxGeometry x="350" y="200" width="120" height="60" as="geometry" />
        </mxCell>
        <mxCell id="zA23MoTUsTF4_91t8viU-4" style="edgeStyle=orthogonalEdgeStyle;rounded=0;orthogonalLoop=1;jettySize=auto;html=1;exitX=1;exitY=0.5;exitDx=0;exitDy=0;entryX=0;entryY=0.5;entryDx=0;entryDy=0;entryPerimeter=0;" parent="1" source="zA23MoTUsTF4_91t8viU-3" target="zA23MoTUsTF4_91t8viU-2" edge="1">
          <mxGeometry relative="1" as="geometry" />
        </mxCell>
        <mxCell id="lrtOGTi42sTW7biP3XFJ-1" value="&lt;b&gt;Было&lt;/b&gt;" style="text;html=1;align=center;verticalAlign=middle;whiteSpace=wrap;rounded=0;" vertex="1" parent="1">
          <mxGeometry x="100" y="150" width="80" height="40" as="geometry" />
        </mxCell>
        <mxCell id="lrtOGTi42sTW7biP3XFJ-2" value="&lt;font style=&quot;font-size: 12px;&quot;&gt;&lt;b&gt;1. Хэшированное ш&lt;span style=&quot;color: rgba(0, 0, 0, 0.85); font-family: &amp;quot;YS Text&amp;quot;, sans-serif; text-align: left; white-space-collapse: preserve-breaks; background-color: rgb(255, 255, 255);&quot;&gt;ардирование в MongoDB для повышения производительности (2 шарда)&lt;/span&gt;&lt;/b&gt;&lt;/font&gt;" style="text;html=1;align=center;verticalAlign=middle;whiteSpace=wrap;rounded=0;" vertex="1" parent="1">
          <mxGeometry x="90" y="320" width="570" height="40" as="geometry" />
        </mxCell>
        <mxCell id="lrtOGTi42sTW7biP3XFJ-3" value="MongoDB&lt;div&gt;&lt;br&gt;&lt;/div&gt;&lt;div&gt;&lt;br&gt;&lt;/div&gt;&lt;div&gt;&lt;br&gt;&lt;/div&gt;&lt;div&gt;&lt;br&gt;&lt;/div&gt;&lt;div&gt;&lt;br&gt;&lt;/div&gt;&lt;div&gt;&lt;br&gt;&lt;/div&gt;&lt;div&gt;&lt;br&gt;&lt;/div&gt;&lt;div&gt;&lt;br&gt;&lt;/div&gt;&lt;div&gt;&lt;br&gt;&lt;/div&gt;&lt;div&gt;&lt;br&gt;&lt;/div&gt;&lt;div&gt;&lt;br&gt;&lt;/div&gt;&lt;div&gt;&lt;br&gt;&lt;/div&gt;&lt;div&gt;&lt;br&gt;&lt;/div&gt;&lt;div&gt;&lt;br&gt;&lt;/div&gt;&lt;div&gt;&lt;br&gt;&lt;/div&gt;&lt;div&gt;&lt;br&gt;&lt;/div&gt;&lt;div&gt;&lt;br&gt;&lt;/div&gt;&lt;div&gt;&lt;br&gt;&lt;/div&gt;&lt;div&gt;&lt;br&gt;&lt;/div&gt;&lt;div&gt;&lt;br&gt;&lt;/div&gt;&lt;div&gt;&lt;br&gt;&lt;/div&gt;&lt;div&gt;&lt;br&gt;&lt;/div&gt;&lt;div&gt;&lt;br&gt;&lt;/div&gt;&lt;div&gt;&lt;br&gt;&lt;/div&gt;&lt;div&gt;&lt;br&gt;&lt;/div&gt;&lt;div&gt;&lt;br&gt;&lt;/div&gt;&lt;div&gt;&lt;br&gt;&lt;/div&gt;" style="shape=cylinder3;whiteSpace=wrap;html=1;boundedLbl=1;backgroundOutline=1;size=15;" vertex="1" parent="1">
          <mxGeometry x="560" y="380" width="340" height="450" as="geometry" />
        </mxCell>
        <mxCell id="lrtOGTi42sTW7biP3XFJ-4" value="pymongo-api" style="rounded=1;whiteSpace=wrap;html=1;" vertex="1" parent="1">
          <mxGeometry x="360" y="530" width="120" height="60" as="geometry" />
        </mxCell>
        <mxCell id="lrtOGTi42sTW7biP3XFJ-5" style="edgeStyle=orthogonalEdgeStyle;rounded=0;orthogonalLoop=1;jettySize=auto;html=1;exitX=1;exitY=0.5;exitDx=0;exitDy=0;entryX=0;entryY=0.5;entryDx=0;entryDy=0;entryPerimeter=0;" edge="1" parent="1" source="lrtOGTi42sTW7biP3XFJ-4">
          <mxGeometry relative="1" as="geometry">
            <mxPoint x="560" y="560" as="targetPoint" />
          </mxGeometry>
        </mxCell>
        <mxCell id="lrtOGTi42sTW7biP3XFJ-6" value="Ключ шарда" style="rounded=1;whiteSpace=wrap;html=1;" vertex="1" parent="1">
          <mxGeometry x="670" y="430" width="120" height="60" as="geometry" />
        </mxCell>
        <mxCell id="lrtOGTi42sTW7biP3XFJ-7" value="Хэш-функция" style="rounded=1;whiteSpace=wrap;html=1;" vertex="1" parent="1">
          <mxGeometry x="670" y="500" width="120" height="60" as="geometry" />
        </mxCell>
        <mxCell id="lrtOGTi42sTW7biP3XFJ-8" value="Таблицы с идентификаторами столбцов и их соответствующими хэш-значениями" style="rounded=1;whiteSpace=wrap;html=1;" vertex="1" parent="1">
          <mxGeometry x="620" y="570" width="220" height="60" as="geometry" />
        </mxCell>
        <mxCell id="lrtOGTi42sTW7biP3XFJ-9" value="Сегмент (шард) 1&amp;nbsp;" style="rounded=1;whiteSpace=wrap;html=1;" vertex="1" parent="1">
          <mxGeometry x="590" y="650" width="140" height="110" as="geometry" />
        </mxCell>
        <mxCell id="lrtOGTi42sTW7biP3XFJ-10" value="Сегмент (шард) 2&amp;nbsp;" style="rounded=1;whiteSpace=wrap;html=1;" vertex="1" parent="1">
          <mxGeometry x="750" y="650" width="140" height="110" as="geometry" />
        </mxCell>
        <mxCell id="lrtOGTi42sTW7biP3XFJ-11" value="" style="endArrow=classic;html=1;rounded=0;exitX=0.5;exitY=1;exitDx=0;exitDy=0;entryX=0.5;entryY=0;entryDx=0;entryDy=0;" edge="1" parent="1" source="lrtOGTi42sTW7biP3XFJ-6" target="lrtOGTi42sTW7biP3XFJ-7">
          <mxGeometry width="50" height="50" relative="1" as="geometry">
            <mxPoint x="560" y="560" as="sourcePoint" />
            <mxPoint x="610" y="510" as="targetPoint" />
          </mxGeometry>
        </mxCell>
        <mxCell id="lrtOGTi42sTW7biP3XFJ-12" value="" style="endArrow=classic;html=1;rounded=0;exitX=0.5;exitY=1;exitDx=0;exitDy=0;entryX=0.5;entryY=0;entryDx=0;entryDy=0;" edge="1" parent="1" source="lrtOGTi42sTW7biP3XFJ-7" target="lrtOGTi42sTW7biP3XFJ-8">
          <mxGeometry width="50" height="50" relative="1" as="geometry">
            <mxPoint x="560" y="560" as="sourcePoint" />
            <mxPoint x="610" y="510" as="targetPoint" />
          </mxGeometry>
        </mxCell>
        <mxCell id="lrtOGTi42sTW7biP3XFJ-13" value="" style="endArrow=classic;html=1;rounded=0;exitX=0.25;exitY=1;exitDx=0;exitDy=0;entryX=0.5;entryY=0;entryDx=0;entryDy=0;" edge="1" parent="1" source="lrtOGTi42sTW7biP3XFJ-8" target="lrtOGTi42sTW7biP3XFJ-9">
          <mxGeometry width="50" height="50" relative="1" as="geometry">
            <mxPoint x="560" y="560" as="sourcePoint" />
            <mxPoint x="610" y="510" as="targetPoint" />
          </mxGeometry>
        </mxCell>
        <mxCell id="lrtOGTi42sTW7biP3XFJ-14" value="" style="endArrow=classic;html=1;rounded=0;exitX=0.75;exitY=1;exitDx=0;exitDy=0;entryX=0.5;entryY=0;entryDx=0;entryDy=0;" edge="1" parent="1" source="lrtOGTi42sTW7biP3XFJ-8" target="lrtOGTi42sTW7biP3XFJ-10">
          <mxGeometry width="50" height="50" relative="1" as="geometry">
            <mxPoint x="560" y="560" as="sourcePoint" />
            <mxPoint x="610" y="510" as="targetPoint" />
          </mxGeometry>
        </mxCell>
        <mxCell id="lrtOGTi42sTW7biP3XFJ-15" value="&lt;div style=&quot;text-align: center;&quot;&gt;&lt;b style=&quot;&quot;&gt;&lt;span style=&quot;text-align: left; background-color: rgb(255, 255, 255); color: rgba(0, 0, 0, 0.85);&quot;&gt;3. Пункт 2 (шардирование) + репликация&amp;nbsp;&lt;/span&gt;&lt;span style=&quot;color: rgba(0, 0, 0, 0.85); background-color: rgb(255, 255, 255); font-family: &amp;quot;YS Text&amp;quot;, sans-serif; text-align: left; white-space-collapse: preserve-breaks;&quot;&gt;для повышения производительности (2 шарда)&lt;/span&gt;&lt;/b&gt;&lt;/div&gt;" style="text;html=1;align=center;verticalAlign=middle;whiteSpace=wrap;rounded=0;" vertex="1" parent="1">
          <mxGeometry x="89" y="1370" width="570" height="40" as="geometry" />
        </mxCell>
        <mxCell id="lrtOGTi42sTW7biP3XFJ-16" value="MongoDBases Сегмент 1&lt;div&gt;&lt;br&gt;&lt;/div&gt;&lt;div&gt;&lt;br&gt;&lt;/div&gt;&lt;div&gt;&lt;br&gt;&lt;/div&gt;&lt;div&gt;&lt;br&gt;&lt;/div&gt;&lt;div&gt;&lt;br&gt;&lt;/div&gt;&lt;div&gt;&lt;br&gt;&lt;/div&gt;&lt;div&gt;&lt;br&gt;&lt;/div&gt;&lt;div&gt;&lt;br&gt;&lt;/div&gt;&lt;div&gt;&lt;br&gt;&lt;/div&gt;&lt;div&gt;&lt;br&gt;&lt;/div&gt;&lt;div&gt;&lt;br&gt;&lt;/div&gt;&lt;div&gt;&lt;br&gt;&lt;/div&gt;&lt;div&gt;&lt;br&gt;&lt;/div&gt;&lt;div&gt;&lt;br&gt;&lt;/div&gt;&lt;div&gt;&lt;br&gt;&lt;/div&gt;&lt;div&gt;&lt;br&gt;&lt;/div&gt;" style="shape=cylinder3;whiteSpace=wrap;html=1;boundedLbl=1;backgroundOutline=1;size=15;" vertex="1" parent="1">
          <mxGeometry x="599" y="1420" width="300" height="240" as="geometry" />
        </mxCell>
        <mxCell id="lrtOGTi42sTW7biP3XFJ-17" value="pymongo-api" style="rounded=1;whiteSpace=wrap;html=1;" vertex="1" parent="1">
          <mxGeometry x="29" y="1580" width="120" height="60" as="geometry" />
        </mxCell>
        <mxCell id="lrtOGTi42sTW7biP3XFJ-18" style="edgeStyle=orthogonalEdgeStyle;rounded=0;orthogonalLoop=1;jettySize=auto;html=1;exitX=1;exitY=0.5;exitDx=0;exitDy=0;entryX=0;entryY=0.5;entryDx=0;entryDy=0;entryPerimeter=0;" edge="1" parent="1" source="lrtOGTi42sTW7biP3XFJ-17">
          <mxGeometry relative="1" as="geometry">
            <mxPoint x="229" y="1610" as="targetPoint" />
          </mxGeometry>
        </mxCell>
        <mxCell id="lrtOGTi42sTW7biP3XFJ-21" value="Первичный сервер сегмента 1 (реплика 1)&amp;nbsp;" style="rounded=1;whiteSpace=wrap;html=1;" vertex="1" parent="1">
          <mxGeometry x="649" y="1460" width="220" height="60" as="geometry" />
        </mxCell>
        <mxCell id="lrtOGTi42sTW7biP3XFJ-22" value="Реплика 2 (вторичный сервер) сегмента 1" style="rounded=1;whiteSpace=wrap;html=1;" vertex="1" parent="1">
          <mxGeometry x="609" y="1540" width="140" height="110" as="geometry" />
        </mxCell>
        <mxCell id="lrtOGTi42sTW7biP3XFJ-28" value="Драйвер моста" style="rounded=1;whiteSpace=wrap;html=1;" vertex="1" parent="1">
          <mxGeometry x="229" y="1580" width="120" height="60" as="geometry" />
        </mxCell>
        <mxCell id="lrtOGTi42sTW7biP3XFJ-29" value="Роутер (mongos_router)" style="rounded=1;whiteSpace=wrap;html=1;" vertex="1" parent="1">
          <mxGeometry x="389" y="1580" width="120" height="60" as="geometry" />
        </mxCell>
        <mxCell id="lrtOGTi42sTW7biP3XFJ-30" value="" style="endArrow=classic;html=1;rounded=0;exitX=1;exitY=0.5;exitDx=0;exitDy=0;entryX=0;entryY=0.5;entryDx=0;entryDy=0;" edge="1" parent="1" source="lrtOGTi42sTW7biP3XFJ-28" target="lrtOGTi42sTW7biP3XFJ-29">
          <mxGeometry width="50" height="50" relative="1" as="geometry">
            <mxPoint x="559" y="1570" as="sourcePoint" />
            <mxPoint x="609" y="1520" as="targetPoint" />
          </mxGeometry>
        </mxCell>
        <mxCell id="lrtOGTi42sTW7biP3XFJ-31" value="" style="endArrow=classic;html=1;rounded=0;entryX=1;entryY=0.75;entryDx=0;entryDy=0;exitX=0;exitY=0.75;exitDx=0;exitDy=0;" edge="1" parent="1" source="lrtOGTi42sTW7biP3XFJ-29" target="lrtOGTi42sTW7biP3XFJ-28">
          <mxGeometry width="50" height="50" relative="1" as="geometry">
            <mxPoint x="559" y="1570" as="sourcePoint" />
            <mxPoint x="609" y="1520" as="targetPoint" />
          </mxGeometry>
        </mxCell>
        <mxCell id="lrtOGTi42sTW7biP3XFJ-33" value="MongoDBases Сегмент 2&lt;div&gt;&lt;br&gt;&lt;/div&gt;&lt;div&gt;&lt;br&gt;&lt;/div&gt;&lt;div&gt;&lt;br&gt;&lt;/div&gt;&lt;div&gt;&lt;br&gt;&lt;/div&gt;&lt;div&gt;&lt;br&gt;&lt;/div&gt;&lt;div&gt;&lt;br&gt;&lt;/div&gt;&lt;div&gt;&lt;br&gt;&lt;/div&gt;&lt;div&gt;&lt;br&gt;&lt;/div&gt;&lt;div&gt;&lt;br&gt;&lt;/div&gt;&lt;div&gt;&lt;br&gt;&lt;/div&gt;&lt;div&gt;&lt;br&gt;&lt;/div&gt;&lt;div&gt;&lt;br&gt;&lt;/div&gt;&lt;div&gt;&lt;br&gt;&lt;/div&gt;&lt;div&gt;&lt;br&gt;&lt;/div&gt;&lt;div&gt;&lt;br&gt;&lt;/div&gt;&lt;div&gt;&lt;br&gt;&lt;/div&gt;" style="shape=cylinder3;whiteSpace=wrap;html=1;boundedLbl=1;backgroundOutline=1;size=15;" vertex="1" parent="1">
          <mxGeometry x="599" y="1690" width="300" height="240" as="geometry" />
        </mxCell>
        <mxCell id="lrtOGTi42sTW7biP3XFJ-34" value="Первичный сервер сегмента 2 (реплика 1)&amp;nbsp;" style="rounded=1;whiteSpace=wrap;html=1;" vertex="1" parent="1">
          <mxGeometry x="649" y="1730" width="220" height="60" as="geometry" />
        </mxCell>
        <mxCell id="lrtOGTi42sTW7biP3XFJ-35" value="Реплика 2 (вторичный сервер) сегмента 2" style="rounded=1;whiteSpace=wrap;html=1;" vertex="1" parent="1">
          <mxGeometry x="609" y="1810" width="150" height="110" as="geometry" />
        </mxCell>
        <mxCell id="lrtOGTi42sTW7biP3XFJ-39" value="" style="endArrow=classic;html=1;rounded=0;exitX=1;exitY=0.25;exitDx=0;exitDy=0;entryX=0;entryY=0.5;entryDx=0;entryDy=0;entryPerimeter=0;" edge="1" parent="1" source="lrtOGTi42sTW7biP3XFJ-29" target="lrtOGTi42sTW7biP3XFJ-16">
          <mxGeometry width="50" height="50" relative="1" as="geometry">
            <mxPoint x="559" y="1690" as="sourcePoint" />
            <mxPoint x="609" y="1640" as="targetPoint" />
          </mxGeometry>
        </mxCell>
        <mxCell id="lrtOGTi42sTW7biP3XFJ-40" value="" style="endArrow=classic;html=1;rounded=0;entryX=-0.003;entryY=0.533;entryDx=0;entryDy=0;entryPerimeter=0;exitX=1;exitY=0.75;exitDx=0;exitDy=0;" edge="1" parent="1" source="lrtOGTi42sTW7biP3XFJ-29" target="lrtOGTi42sTW7biP3XFJ-33">
          <mxGeometry width="50" height="50" relative="1" as="geometry">
            <mxPoint x="559" y="1690" as="sourcePoint" />
            <mxPoint x="609" y="1640" as="targetPoint" />
          </mxGeometry>
        </mxCell>
        <mxCell id="lrtOGTi42sTW7biP3XFJ-49" value="Реплика 3 (вторичный сервер) сегмента 1" style="rounded=1;whiteSpace=wrap;html=1;" vertex="1" parent="1">
          <mxGeometry x="759" y="1540" width="130" height="110" as="geometry" />
        </mxCell>
        <mxCell id="lrtOGTi42sTW7biP3XFJ-54" value="Реплика 3 (вторичный сервер) сегмента 2" style="rounded=1;whiteSpace=wrap;html=1;" vertex="1" parent="1">
          <mxGeometry x="769" y="1810" width="120" height="110" as="geometry" />
        </mxCell>
        <mxCell id="lrtOGTi42sTW7biP3XFJ-57" value="" style="endArrow=classic;html=1;rounded=0;exitX=0.25;exitY=1;exitDx=0;exitDy=0;entryX=0.5;entryY=0;entryDx=0;entryDy=0;" edge="1" parent="1" source="lrtOGTi42sTW7biP3XFJ-21" target="lrtOGTi42sTW7biP3XFJ-22">
          <mxGeometry width="50" height="50" relative="1" as="geometry">
            <mxPoint x="559" y="1690" as="sourcePoint" />
            <mxPoint x="609" y="1640" as="targetPoint" />
          </mxGeometry>
        </mxCell>
        <mxCell id="lrtOGTi42sTW7biP3XFJ-58" value="" style="endArrow=classic;html=1;rounded=0;entryX=0.5;entryY=0;entryDx=0;entryDy=0;" edge="1" parent="1" source="lrtOGTi42sTW7biP3XFJ-34" target="lrtOGTi42sTW7biP3XFJ-35">
          <mxGeometry width="50" height="50" relative="1" as="geometry">
            <mxPoint x="714" y="1530" as="sourcePoint" />
            <mxPoint x="689" y="1550" as="targetPoint" />
            <Array as="points" />
          </mxGeometry>
        </mxCell>
        <mxCell id="lrtOGTi42sTW7biP3XFJ-59" value="" style="endArrow=classic;html=1;rounded=0;entryX=0.5;entryY=0;entryDx=0;entryDy=0;exitX=0.75;exitY=1;exitDx=0;exitDy=0;" edge="1" parent="1" source="lrtOGTi42sTW7biP3XFJ-34" target="lrtOGTi42sTW7biP3XFJ-54">
          <mxGeometry width="50" height="50" relative="1" as="geometry">
            <mxPoint x="559" y="1690" as="sourcePoint" />
            <mxPoint x="609" y="1640" as="targetPoint" />
          </mxGeometry>
        </mxCell>
        <mxCell id="lrtOGTi42sTW7biP3XFJ-60" value="" style="endArrow=classic;html=1;rounded=0;exitX=0.636;exitY=1;exitDx=0;exitDy=0;exitPerimeter=0;entryX=0.5;entryY=0;entryDx=0;entryDy=0;" edge="1" parent="1" source="lrtOGTi42sTW7biP3XFJ-21" target="lrtOGTi42sTW7biP3XFJ-49">
          <mxGeometry width="50" height="50" relative="1" as="geometry">
            <mxPoint x="559" y="1690" as="sourcePoint" />
            <mxPoint x="609" y="1640" as="targetPoint" />
          </mxGeometry>
        </mxCell>
        <mxCell id="lrtOGTi42sTW7biP3XFJ-61" value="Конфигурационный сервер" style="rounded=1;whiteSpace=wrap;html=1;" vertex="1" parent="1">
          <mxGeometry x="389" y="1690" width="120" height="60" as="geometry" />
        </mxCell>
        <mxCell id="lrtOGTi42sTW7biP3XFJ-63" value="" style="endArrow=classic;html=1;rounded=0;exitX=0.5;exitY=1;exitDx=0;exitDy=0;entryX=0.5;entryY=0;entryDx=0;entryDy=0;" edge="1" parent="1" source="lrtOGTi42sTW7biP3XFJ-29" target="lrtOGTi42sTW7biP3XFJ-61">
          <mxGeometry width="50" height="50" relative="1" as="geometry">
            <mxPoint x="559" y="1810" as="sourcePoint" />
            <mxPoint x="609" y="1760" as="targetPoint" />
          </mxGeometry>
        </mxCell>
        <mxCell id="lrtOGTi42sTW7biP3XFJ-64" value="" style="endArrow=classic;html=1;rounded=0;exitX=-0.003;exitY=0.608;exitDx=0;exitDy=0;exitPerimeter=0;entryX=1;entryY=0;entryDx=0;entryDy=0;" edge="1" parent="1" source="lrtOGTi42sTW7biP3XFJ-16" target="lrtOGTi42sTW7biP3XFJ-61">
          <mxGeometry width="50" height="50" relative="1" as="geometry">
            <mxPoint x="559" y="1810" as="sourcePoint" />
            <mxPoint x="609" y="1760" as="targetPoint" />
          </mxGeometry>
        </mxCell>
        <mxCell id="lrtOGTi42sTW7biP3XFJ-65" value="" style="endArrow=classic;html=1;rounded=0;exitX=0;exitY=0.654;exitDx=0;exitDy=0;exitPerimeter=0;entryX=1;entryY=1;entryDx=0;entryDy=0;" edge="1" parent="1" source="lrtOGTi42sTW7biP3XFJ-33" target="lrtOGTi42sTW7biP3XFJ-61">
          <mxGeometry width="50" height="50" relative="1" as="geometry">
            <mxPoint x="559" y="1810" as="sourcePoint" />
            <mxPoint x="609" y="1760" as="targetPoint" />
          </mxGeometry>
        </mxCell>
        <mxCell id="lrtOGTi42sTW7biP3XFJ-66" value="&lt;font style=&quot;font-size: 12px;&quot; face=&quot;Helvetica&quot;&gt;&lt;b&gt;&lt;font style=&quot;&quot;&gt;4. Пункт 2 +&amp;nbsp;&lt;/font&gt;&lt;span style=&quot;color: rgba(0, 0, 0, 0.85); text-align: left; white-space-collapse: preserve-breaks; background-color: rgb(255, 255, 255);&quot;&gt;кеширования запросов приложения к MongoDB&lt;/span&gt;&lt;/b&gt;&lt;/font&gt;" style="text;html=1;align=center;verticalAlign=middle;whiteSpace=wrap;rounded=0;" vertex="1" parent="1">
          <mxGeometry x="89" y="1990" width="400" height="40" as="geometry" />
        </mxCell>
        <mxCell id="lrtOGTi42sTW7biP3XFJ-67" value="MongoDBases Сегмент 1&lt;div&gt;&lt;br&gt;&lt;/div&gt;&lt;div&gt;&lt;br&gt;&lt;/div&gt;&lt;div&gt;&lt;br&gt;&lt;/div&gt;&lt;div&gt;&lt;br&gt;&lt;/div&gt;&lt;div&gt;&lt;br&gt;&lt;/div&gt;&lt;div&gt;&lt;br&gt;&lt;/div&gt;&lt;div&gt;&lt;br&gt;&lt;/div&gt;&lt;div&gt;&lt;br&gt;&lt;/div&gt;&lt;div&gt;&lt;br&gt;&lt;/div&gt;&lt;div&gt;&lt;br&gt;&lt;/div&gt;&lt;div&gt;&lt;br&gt;&lt;/div&gt;&lt;div&gt;&lt;br&gt;&lt;/div&gt;&lt;div&gt;&lt;br&gt;&lt;/div&gt;&lt;div&gt;&lt;br&gt;&lt;/div&gt;&lt;div&gt;&lt;br&gt;&lt;/div&gt;&lt;div&gt;&lt;br&gt;&lt;/div&gt;" style="shape=cylinder3;whiteSpace=wrap;html=1;boundedLbl=1;backgroundOutline=1;size=15;" vertex="1" parent="1">
          <mxGeometry x="849" y="2040" width="300" height="240" as="geometry" />
        </mxCell>
        <mxCell id="lrtOGTi42sTW7biP3XFJ-68" value="pymongo-api" style="rounded=1;whiteSpace=wrap;html=1;" vertex="1" parent="1">
          <mxGeometry x="29" y="2200" width="120" height="60" as="geometry" />
        </mxCell>
        <mxCell id="lrtOGTi42sTW7biP3XFJ-69" style="edgeStyle=orthogonalEdgeStyle;rounded=0;orthogonalLoop=1;jettySize=auto;html=1;exitX=1;exitY=0.5;exitDx=0;exitDy=0;entryX=0;entryY=0.5;entryDx=0;entryDy=0;entryPerimeter=0;" edge="1" parent="1" source="lrtOGTi42sTW7biP3XFJ-68">
          <mxGeometry relative="1" as="geometry">
            <mxPoint x="229" y="2230" as="targetPoint" />
          </mxGeometry>
        </mxCell>
        <mxCell id="lrtOGTi42sTW7biP3XFJ-70" value="Первичный сервер сегмента 1 (реплика 1)&amp;nbsp;" style="rounded=1;whiteSpace=wrap;html=1;" vertex="1" parent="1">
          <mxGeometry x="899" y="2080" width="220" height="60" as="geometry" />
        </mxCell>
        <mxCell id="lrtOGTi42sTW7biP3XFJ-71" value="Реплика 2 (вторичный сервер) сегмента 1" style="rounded=1;whiteSpace=wrap;html=1;" vertex="1" parent="1">
          <mxGeometry x="859" y="2160" width="140" height="110" as="geometry" />
        </mxCell>
        <mxCell id="lrtOGTi42sTW7biP3XFJ-72" value="Драйвер моста" style="rounded=1;whiteSpace=wrap;html=1;" vertex="1" parent="1">
          <mxGeometry x="229" y="2200" width="120" height="60" as="geometry" />
        </mxCell>
        <mxCell id="lrtOGTi42sTW7biP3XFJ-73" value="Роутер (mongos_router)" style="rounded=1;whiteSpace=wrap;html=1;" vertex="1" parent="1">
          <mxGeometry x="389" y="2200" width="120" height="60" as="geometry" />
        </mxCell>
        <mxCell id="lrtOGTi42sTW7biP3XFJ-74" value="" style="endArrow=classic;html=1;rounded=0;exitX=1;exitY=0.5;exitDx=0;exitDy=0;entryX=0;entryY=0.5;entryDx=0;entryDy=0;" edge="1" parent="1" source="lrtOGTi42sTW7biP3XFJ-72" target="lrtOGTi42sTW7biP3XFJ-73">
          <mxGeometry width="50" height="50" relative="1" as="geometry">
            <mxPoint x="559" y="2190" as="sourcePoint" />
            <mxPoint x="609" y="2140" as="targetPoint" />
          </mxGeometry>
        </mxCell>
        <mxCell id="lrtOGTi42sTW7biP3XFJ-75" value="" style="endArrow=classic;html=1;rounded=0;entryX=1;entryY=0.75;entryDx=0;entryDy=0;exitX=0;exitY=0.75;exitDx=0;exitDy=0;" edge="1" parent="1" source="lrtOGTi42sTW7biP3XFJ-73" target="lrtOGTi42sTW7biP3XFJ-72">
          <mxGeometry width="50" height="50" relative="1" as="geometry">
            <mxPoint x="559" y="2190" as="sourcePoint" />
            <mxPoint x="609" y="2140" as="targetPoint" />
          </mxGeometry>
        </mxCell>
        <mxCell id="lrtOGTi42sTW7biP3XFJ-77" value="MongoDBases Сегмент 2&lt;div&gt;&lt;br&gt;&lt;/div&gt;&lt;div&gt;&lt;br&gt;&lt;/div&gt;&lt;div&gt;&lt;br&gt;&lt;/div&gt;&lt;div&gt;&lt;br&gt;&lt;/div&gt;&lt;div&gt;&lt;br&gt;&lt;/div&gt;&lt;div&gt;&lt;br&gt;&lt;/div&gt;&lt;div&gt;&lt;br&gt;&lt;/div&gt;&lt;div&gt;&lt;br&gt;&lt;/div&gt;&lt;div&gt;&lt;br&gt;&lt;/div&gt;&lt;div&gt;&lt;br&gt;&lt;/div&gt;&lt;div&gt;&lt;br&gt;&lt;/div&gt;&lt;div&gt;&lt;br&gt;&lt;/div&gt;&lt;div&gt;&lt;br&gt;&lt;/div&gt;&lt;div&gt;&lt;br&gt;&lt;/div&gt;&lt;div&gt;&lt;br&gt;&lt;/div&gt;&lt;div&gt;&lt;br&gt;&lt;/div&gt;" style="shape=cylinder3;whiteSpace=wrap;html=1;boundedLbl=1;backgroundOutline=1;size=15;" vertex="1" parent="1">
          <mxGeometry x="849" y="2310" width="300" height="240" as="geometry" />
        </mxCell>
        <mxCell id="lrtOGTi42sTW7biP3XFJ-78" value="Первичный сервер сегмента 2 (реплика 1)&amp;nbsp;" style="rounded=1;whiteSpace=wrap;html=1;" vertex="1" parent="1">
          <mxGeometry x="899" y="2350" width="220" height="60" as="geometry" />
        </mxCell>
        <mxCell id="lrtOGTi42sTW7biP3XFJ-79" value="Реплика 2 (вторичный сервер) сегмента 2" style="rounded=1;whiteSpace=wrap;html=1;" vertex="1" parent="1">
          <mxGeometry x="859" y="2430" width="150" height="110" as="geometry" />
        </mxCell>
        <mxCell id="lrtOGTi42sTW7biP3XFJ-80" value="" style="endArrow=classic;html=1;rounded=0;exitX=1;exitY=0.25;exitDx=0;exitDy=0;entryX=0;entryY=0.5;entryDx=0;entryDy=0;entryPerimeter=0;" edge="1" parent="1" source="lrtOGTi42sTW7biP3XFJ-73" target="lrtOGTi42sTW7biP3XFJ-92">
          <mxGeometry width="50" height="50" relative="1" as="geometry">
            <mxPoint x="559" y="2310" as="sourcePoint" />
            <mxPoint x="629" y="2170" as="targetPoint" />
          </mxGeometry>
        </mxCell>
        <mxCell id="lrtOGTi42sTW7biP3XFJ-81" value="" style="endArrow=classic;html=1;rounded=0;exitX=1;exitY=0.75;exitDx=0;exitDy=0;entryX=0.007;entryY=0.567;entryDx=0;entryDy=0;entryPerimeter=0;" edge="1" parent="1" source="lrtOGTi42sTW7biP3XFJ-73" target="lrtOGTi42sTW7biP3XFJ-93">
          <mxGeometry width="50" height="50" relative="1" as="geometry">
            <mxPoint x="559" y="2310" as="sourcePoint" />
            <mxPoint x="649" y="2390" as="targetPoint" />
          </mxGeometry>
        </mxCell>
        <mxCell id="lrtOGTi42sTW7biP3XFJ-82" value="Реплика 3 (вторичный сервер) сегмента 1" style="rounded=1;whiteSpace=wrap;html=1;" vertex="1" parent="1">
          <mxGeometry x="1009" y="2160" width="130" height="110" as="geometry" />
        </mxCell>
        <mxCell id="lrtOGTi42sTW7biP3XFJ-83" value="Реплика 3 (вторичный сервер) сегмента 2" style="rounded=1;whiteSpace=wrap;html=1;" vertex="1" parent="1">
          <mxGeometry x="1019" y="2430" width="120" height="110" as="geometry" />
        </mxCell>
        <mxCell id="lrtOGTi42sTW7biP3XFJ-84" value="" style="endArrow=classic;html=1;rounded=0;exitX=0.25;exitY=1;exitDx=0;exitDy=0;entryX=0.5;entryY=0;entryDx=0;entryDy=0;" edge="1" parent="1" source="lrtOGTi42sTW7biP3XFJ-70" target="lrtOGTi42sTW7biP3XFJ-71">
          <mxGeometry width="50" height="50" relative="1" as="geometry">
            <mxPoint x="809" y="2310" as="sourcePoint" />
            <mxPoint x="859" y="2260" as="targetPoint" />
          </mxGeometry>
        </mxCell>
        <mxCell id="lrtOGTi42sTW7biP3XFJ-85" value="" style="endArrow=classic;html=1;rounded=0;entryX=0.5;entryY=0;entryDx=0;entryDy=0;" edge="1" parent="1" source="lrtOGTi42sTW7biP3XFJ-78" target="lrtOGTi42sTW7biP3XFJ-79">
          <mxGeometry width="50" height="50" relative="1" as="geometry">
            <mxPoint x="964" y="2150" as="sourcePoint" />
            <mxPoint x="939" y="2170" as="targetPoint" />
            <Array as="points" />
          </mxGeometry>
        </mxCell>
        <mxCell id="lrtOGTi42sTW7biP3XFJ-86" value="" style="endArrow=classic;html=1;rounded=0;entryX=0.5;entryY=0;entryDx=0;entryDy=0;exitX=0.75;exitY=1;exitDx=0;exitDy=0;" edge="1" parent="1" source="lrtOGTi42sTW7biP3XFJ-78" target="lrtOGTi42sTW7biP3XFJ-83">
          <mxGeometry width="50" height="50" relative="1" as="geometry">
            <mxPoint x="809" y="2310" as="sourcePoint" />
            <mxPoint x="859" y="2260" as="targetPoint" />
          </mxGeometry>
        </mxCell>
        <mxCell id="lrtOGTi42sTW7biP3XFJ-87" value="" style="endArrow=classic;html=1;rounded=0;exitX=0.636;exitY=1;exitDx=0;exitDy=0;exitPerimeter=0;entryX=0.5;entryY=0;entryDx=0;entryDy=0;" edge="1" parent="1" source="lrtOGTi42sTW7biP3XFJ-70" target="lrtOGTi42sTW7biP3XFJ-82">
          <mxGeometry width="50" height="50" relative="1" as="geometry">
            <mxPoint x="809" y="2310" as="sourcePoint" />
            <mxPoint x="859" y="2260" as="targetPoint" />
          </mxGeometry>
        </mxCell>
        <mxCell id="lrtOGTi42sTW7biP3XFJ-88" value="Конфигурационный сервер" style="rounded=1;whiteSpace=wrap;html=1;" vertex="1" parent="1">
          <mxGeometry x="389" y="2480" width="120" height="60" as="geometry" />
        </mxCell>
        <mxCell id="lrtOGTi42sTW7biP3XFJ-89" value="" style="endArrow=classic;html=1;rounded=0;exitX=0.5;exitY=1;exitDx=0;exitDy=0;entryX=0.5;entryY=0;entryDx=0;entryDy=0;" edge="1" parent="1" source="lrtOGTi42sTW7biP3XFJ-73" target="lrtOGTi42sTW7biP3XFJ-88">
          <mxGeometry width="50" height="50" relative="1" as="geometry">
            <mxPoint x="559" y="2430" as="sourcePoint" />
            <mxPoint x="609" y="2380" as="targetPoint" />
          </mxGeometry>
        </mxCell>
        <mxCell id="lrtOGTi42sTW7biP3XFJ-90" value="" style="endArrow=classic;html=1;rounded=0;exitX=-0.003;exitY=0.608;exitDx=0;exitDy=0;exitPerimeter=0;entryX=1;entryY=0;entryDx=0;entryDy=0;" edge="1" parent="1" source="lrtOGTi42sTW7biP3XFJ-67" target="lrtOGTi42sTW7biP3XFJ-88">
          <mxGeometry width="50" height="50" relative="1" as="geometry">
            <mxPoint x="559" y="2430" as="sourcePoint" />
            <mxPoint x="609" y="2380" as="targetPoint" />
            <Array as="points">
              <mxPoint x="799" y="2490" />
            </Array>
          </mxGeometry>
        </mxCell>
        <mxCell id="lrtOGTi42sTW7biP3XFJ-91" value="" style="endArrow=classic;html=1;rounded=0;exitX=0;exitY=0.654;exitDx=0;exitDy=0;exitPerimeter=0;entryX=1;entryY=1;entryDx=0;entryDy=0;" edge="1" parent="1" source="lrtOGTi42sTW7biP3XFJ-77" target="lrtOGTi42sTW7biP3XFJ-88">
          <mxGeometry width="50" height="50" relative="1" as="geometry">
            <mxPoint x="559" y="2430" as="sourcePoint" />
            <mxPoint x="609" y="2380" as="targetPoint" />
            <Array as="points">
              <mxPoint x="779" y="2530" />
            </Array>
          </mxGeometry>
        </mxCell>
        <mxCell id="lrtOGTi42sTW7biP3XFJ-92" value="Redis 1&lt;div&gt;&lt;br&gt;&lt;/div&gt;&lt;div&gt;&lt;br&gt;&lt;/div&gt;&lt;div&gt;&lt;br&gt;&lt;/div&gt;&lt;div&gt;&lt;br&gt;&lt;/div&gt;&lt;div&gt;&lt;br&gt;&lt;/div&gt;&lt;div&gt;&lt;br&gt;&lt;/div&gt;&lt;div&gt;&lt;br&gt;&lt;/div&gt;&lt;div&gt;&lt;br&gt;&lt;/div&gt;&lt;div&gt;&lt;br&gt;&lt;/div&gt;&lt;div&gt;&lt;br&gt;&lt;/div&gt;&lt;div&gt;&lt;br&gt;&lt;/div&gt;&lt;div&gt;&lt;br&gt;&lt;/div&gt;&lt;div&gt;&lt;br&gt;&lt;/div&gt;&lt;div&gt;&lt;br&gt;&lt;/div&gt;&lt;div&gt;&lt;br&gt;&lt;/div&gt;" style="shape=cylinder3;whiteSpace=wrap;html=1;boundedLbl=1;backgroundOutline=1;size=15;" vertex="1" parent="1">
          <mxGeometry x="599" y="2050" width="210" height="210" as="geometry" />
        </mxCell>
        <mxCell id="lrtOGTi42sTW7biP3XFJ-93" value="Redis 2&lt;div&gt;&lt;br&gt;&lt;/div&gt;&lt;div&gt;&lt;br&gt;&lt;/div&gt;&lt;div&gt;&lt;br&gt;&lt;/div&gt;&lt;div&gt;&lt;br&gt;&lt;/div&gt;&lt;div&gt;&lt;br&gt;&lt;/div&gt;&lt;div&gt;&lt;br&gt;&lt;/div&gt;&lt;div&gt;&lt;br&gt;&lt;/div&gt;&lt;div&gt;&lt;br&gt;&lt;/div&gt;&lt;div&gt;&lt;br&gt;&lt;/div&gt;&lt;div&gt;&lt;br&gt;&lt;/div&gt;&lt;div&gt;&lt;br&gt;&lt;/div&gt;&lt;div&gt;&lt;br&gt;&lt;/div&gt;&lt;div&gt;&lt;br&gt;&lt;/div&gt;" style="shape=cylinder3;whiteSpace=wrap;html=1;boundedLbl=1;backgroundOutline=1;size=15;" vertex="1" parent="1">
          <mxGeometry x="599" y="2270" width="200" height="200" as="geometry" />
        </mxCell>
        <mxCell id="lrtOGTi42sTW7biP3XFJ-94" value="" style="endArrow=classic;startArrow=classic;html=1;rounded=0;entryX=0;entryY=0.388;entryDx=0;entryDy=0;entryPerimeter=0;exitX=1;exitY=0.5;exitDx=0;exitDy=0;exitPerimeter=0;" edge="1" parent="1" source="lrtOGTi42sTW7biP3XFJ-92" target="lrtOGTi42sTW7biP3XFJ-67">
          <mxGeometry width="50" height="50" relative="1" as="geometry">
            <mxPoint x="559" y="2300" as="sourcePoint" />
            <mxPoint x="609" y="2250" as="targetPoint" />
          </mxGeometry>
        </mxCell>
        <mxCell id="lrtOGTi42sTW7biP3XFJ-95" value="" style="endArrow=classic;startArrow=classic;html=1;rounded=0;entryX=0;entryY=0.5;entryDx=0;entryDy=0;entryPerimeter=0;exitX=1;exitY=0.5;exitDx=0;exitDy=0;exitPerimeter=0;" edge="1" parent="1" source="lrtOGTi42sTW7biP3XFJ-93" target="lrtOGTi42sTW7biP3XFJ-77">
          <mxGeometry width="50" height="50" relative="1" as="geometry">
            <mxPoint x="559" y="2300" as="sourcePoint" />
            <mxPoint x="609" y="2250" as="targetPoint" />
          </mxGeometry>
        </mxCell>
        <mxCell id="lrtOGTi42sTW7biP3XFJ-96" value="Мастер&amp;nbsp;" style="rounded=1;whiteSpace=wrap;html=1;" vertex="1" parent="1">
          <mxGeometry x="629" y="2100" width="140" height="25" as="geometry" />
        </mxCell>
        <mxCell id="lrtOGTi42sTW7biP3XFJ-97" value="Реплика 1" style="rounded=1;whiteSpace=wrap;html=1;" vertex="1" parent="1">
          <mxGeometry x="609" y="2145" width="80" height="85" as="geometry" />
        </mxCell>
        <mxCell id="lrtOGTi42sTW7biP3XFJ-98" value="Реплика 2" style="rounded=1;whiteSpace=wrap;html=1;" vertex="1" parent="1">
          <mxGeometry x="719" y="2145" width="80" height="85" as="geometry" />
        </mxCell>
        <mxCell id="lrtOGTi42sTW7biP3XFJ-99" value="" style="endArrow=classic;html=1;rounded=0;exitX=0.25;exitY=1;exitDx=0;exitDy=0;entryX=0.5;entryY=0;entryDx=0;entryDy=0;" edge="1" parent="1" source="lrtOGTi42sTW7biP3XFJ-96" target="lrtOGTi42sTW7biP3XFJ-97">
          <mxGeometry width="50" height="50" relative="1" as="geometry">
            <mxPoint x="539" y="2295" as="sourcePoint" />
            <mxPoint x="589" y="2245" as="targetPoint" />
          </mxGeometry>
        </mxCell>
        <mxCell id="lrtOGTi42sTW7biP3XFJ-100" value="" style="endArrow=classic;html=1;rounded=0;exitX=0.636;exitY=1;exitDx=0;exitDy=0;exitPerimeter=0;entryX=0.5;entryY=0;entryDx=0;entryDy=0;" edge="1" parent="1" source="lrtOGTi42sTW7biP3XFJ-96" target="lrtOGTi42sTW7biP3XFJ-98">
          <mxGeometry width="50" height="50" relative="1" as="geometry">
            <mxPoint x="539" y="2295" as="sourcePoint" />
            <mxPoint x="589" y="2245" as="targetPoint" />
          </mxGeometry>
        </mxCell>
        <mxCell id="lrtOGTi42sTW7biP3XFJ-101" value="Мастер&amp;nbsp;" style="rounded=1;whiteSpace=wrap;html=1;" vertex="1" parent="1">
          <mxGeometry x="629" y="2315" width="140" height="25" as="geometry" />
        </mxCell>
        <mxCell id="lrtOGTi42sTW7biP3XFJ-102" value="Реплика 1" style="rounded=1;whiteSpace=wrap;html=1;" vertex="1" parent="1">
          <mxGeometry x="609" y="2360" width="80" height="85" as="geometry" />
        </mxCell>
        <mxCell id="lrtOGTi42sTW7biP3XFJ-103" value="Реплика 2" style="rounded=1;whiteSpace=wrap;html=1;" vertex="1" parent="1">
          <mxGeometry x="719" y="2360" width="80" height="85" as="geometry" />
        </mxCell>
        <mxCell id="lrtOGTi42sTW7biP3XFJ-104" value="" style="endArrow=classic;html=1;rounded=0;exitX=0.25;exitY=1;exitDx=0;exitDy=0;entryX=0.5;entryY=0;entryDx=0;entryDy=0;" edge="1" parent="1" source="lrtOGTi42sTW7biP3XFJ-101" target="lrtOGTi42sTW7biP3XFJ-102">
          <mxGeometry width="50" height="50" relative="1" as="geometry">
            <mxPoint x="539" y="2510" as="sourcePoint" />
            <mxPoint x="589" y="2460" as="targetPoint" />
          </mxGeometry>
        </mxCell>
        <mxCell id="lrtOGTi42sTW7biP3XFJ-105" value="" style="endArrow=classic;html=1;rounded=0;exitX=0.636;exitY=1;exitDx=0;exitDy=0;exitPerimeter=0;entryX=0.5;entryY=0;entryDx=0;entryDy=0;" edge="1" parent="1" source="lrtOGTi42sTW7biP3XFJ-101" target="lrtOGTi42sTW7biP3XFJ-103">
          <mxGeometry width="50" height="50" relative="1" as="geometry">
            <mxPoint x="539" y="2510" as="sourcePoint" />
            <mxPoint x="589" y="2460" as="targetPoint" />
          </mxGeometry>
        </mxCell>
        <mxCell id="lrtOGTi42sTW7biP3XFJ-106" value="&lt;font style=&quot;font-size: 12px;&quot; face=&quot;Helvetica&quot;&gt;&lt;b&gt;&lt;font style=&quot;&quot;&gt;5. S&lt;/font&gt;&lt;/b&gt;&lt;/font&gt;&lt;span style=&quot;text-align: left;&quot;&gt;&lt;font face=&quot;Helvetica&quot; style=&quot;font-size: 12px;&quot;&gt;&lt;b&gt;ervice discovery и балансировка с api gateway&lt;/b&gt;&lt;/font&gt;&lt;/span&gt;" style="text;html=1;align=center;verticalAlign=middle;whiteSpace=wrap;rounded=0;" vertex="1" parent="1">
          <mxGeometry x="69" y="2578" width="400" height="40" as="geometry" />
        </mxCell>
        <mxCell id="lrtOGTi42sTW7biP3XFJ-109" value="Actor" style="shape=umlActor;verticalLabelPosition=bottom;verticalAlign=top;html=1;outlineConnect=0;" vertex="1" parent="1">
          <mxGeometry x="79" y="2785" width="30" height="60" as="geometry" />
        </mxCell>
        <mxCell id="lrtOGTi42sTW7biP3XFJ-114" value="" style="endArrow=classic;html=1;rounded=0;" edge="1" parent="1" source="lrtOGTi42sTW7biP3XFJ-109">
          <mxGeometry width="50" height="50" relative="1" as="geometry">
            <mxPoint x="569" y="2795" as="sourcePoint" />
            <mxPoint x="259" y="2815" as="targetPoint" />
          </mxGeometry>
        </mxCell>
        <mxCell id="lrtOGTi42sTW7biP3XFJ-115" value="APISIX Gateway" style="rounded=1;whiteSpace=wrap;html=1;" vertex="1" parent="1">
          <mxGeometry x="259" y="2745" width="210" height="130" as="geometry" />
        </mxCell>
        <mxCell id="lrtOGTi42sTW7biP3XFJ-117" value="Consul_kv" style="rounded=1;whiteSpace=wrap;html=1;" vertex="1" parent="1">
          <mxGeometry x="339" y="2840" width="120" height="60" as="geometry" />
        </mxCell>
        <mxCell id="lrtOGTi42sTW7biP3XFJ-118" value="" style="endArrow=classic;html=1;rounded=0;exitX=0.5;exitY=1;exitDx=0;exitDy=0;entryX=0.5;entryY=0;entryDx=0;entryDy=0;" edge="1" parent="1" source="lrtOGTi42sTW7biP3XFJ-117" target="lrtOGTi42sTW7biP3XFJ-119">
          <mxGeometry width="50" height="50" relative="1" as="geometry">
            <mxPoint x="569" y="2795" as="sourcePoint" />
            <mxPoint x="609" y="2815" as="targetPoint" />
          </mxGeometry>
        </mxCell>
        <mxCell id="lrtOGTi42sTW7biP3XFJ-119" value="Consul" style="rounded=1;whiteSpace=wrap;html=1;" vertex="1" parent="1">
          <mxGeometry x="339" y="2925" width="120" height="60" as="geometry" />
        </mxCell>
        <mxCell id="lrtOGTi42sTW7biP3XFJ-120" value="Инстанс 1 (схема из пункта 3)" style="rounded=1;whiteSpace=wrap;html=1;fillColor=#E7FF51;" vertex="1" parent="1">
          <mxGeometry x="539" y="2710" width="260" height="60" as="geometry" />
        </mxCell>
        <mxCell id="lrtOGTi42sTW7biP3XFJ-121" value="Инстанс 2 (схема из пункта 3)" style="rounded=1;whiteSpace=wrap;html=1;fillColor=#66FF66;" vertex="1" parent="1">
          <mxGeometry x="539" y="2800" width="260" height="60" as="geometry" />
        </mxCell>
        <mxCell id="lrtOGTi42sTW7biP3XFJ-122" value="Инстанс 3 (схема из пункта 3)" style="rounded=1;whiteSpace=wrap;html=1;fillColor=#3399FF;" vertex="1" parent="1">
          <mxGeometry x="539" y="2885" width="260" height="60" as="geometry" />
        </mxCell>
        <mxCell id="lrtOGTi42sTW7biP3XFJ-123" value="" style="endArrow=classic;html=1;rounded=0;entryX=0;entryY=0.5;entryDx=0;entryDy=0;" edge="1" parent="1" target="lrtOGTi42sTW7biP3XFJ-120">
          <mxGeometry width="50" height="50" relative="1" as="geometry">
            <mxPoint x="509" y="2740" as="sourcePoint" />
            <mxPoint x="609" y="2740" as="targetPoint" />
          </mxGeometry>
        </mxCell>
        <mxCell id="lrtOGTi42sTW7biP3XFJ-124" value="" style="endArrow=classic;html=1;rounded=0;entryX=0;entryY=0.5;entryDx=0;entryDy=0;" edge="1" parent="1" target="lrtOGTi42sTW7biP3XFJ-121">
          <mxGeometry width="50" height="50" relative="1" as="geometry">
            <mxPoint x="509" y="2830" as="sourcePoint" />
            <mxPoint x="609" y="2740" as="targetPoint" />
          </mxGeometry>
        </mxCell>
        <mxCell id="lrtOGTi42sTW7biP3XFJ-125" value="" style="endArrow=classic;html=1;rounded=0;entryX=0;entryY=0.5;entryDx=0;entryDy=0;" edge="1" parent="1" target="lrtOGTi42sTW7biP3XFJ-122">
          <mxGeometry width="50" height="50" relative="1" as="geometry">
            <mxPoint x="509" y="2920" as="sourcePoint" />
            <mxPoint x="609" y="2740" as="targetPoint" />
          </mxGeometry>
        </mxCell>
        <mxCell id="lrtOGTi42sTW7biP3XFJ-126" value="" style="endArrow=classic;html=1;rounded=0;entryX=1;entryY=0.75;entryDx=0;entryDy=0;" edge="1" parent="1" target="lrtOGTi42sTW7biP3XFJ-119">
          <mxGeometry width="50" height="50" relative="1" as="geometry">
            <mxPoint x="799" y="2740" as="sourcePoint" />
            <mxPoint x="609" y="2740" as="targetPoint" />
            <Array as="points">
              <mxPoint x="849" y="2740" />
              <mxPoint x="849" y="2980" />
            </Array>
          </mxGeometry>
        </mxCell>
        <mxCell id="lrtOGTi42sTW7biP3XFJ-129" value="&lt;font style=&quot;font-size: 12px;&quot; face=&quot;Helvetica&quot;&gt;&lt;b&gt;&lt;font style=&quot;&quot;&gt;6. Content Delivery Network&lt;/font&gt;&lt;/b&gt;&lt;/font&gt;" style="text;html=1;align=center;verticalAlign=middle;whiteSpace=wrap;rounded=0;" vertex="1" parent="1">
          <mxGeometry x="39" y="3030" width="400" height="40" as="geometry" />
        </mxCell>
        <mxCell id="lrtOGTi42sTW7biP3XFJ-130" value="Actor" style="shape=umlActor;verticalLabelPosition=bottom;verticalAlign=top;html=1;outlineConnect=0;" vertex="1" parent="1">
          <mxGeometry x="99" y="3165" width="30" height="60" as="geometry" />
        </mxCell>
        <mxCell id="lrtOGTi42sTW7biP3XFJ-131" value="" style="endArrow=classic;html=1;rounded=0;exitX=1;exitY=0.5;exitDx=0;exitDy=0;" edge="1" parent="1" source="lrtOGTi42sTW7biP3XFJ-193">
          <mxGeometry width="50" height="50" relative="1" as="geometry">
            <mxPoint x="349" y="3315" as="sourcePoint" />
            <mxPoint x="399" y="3250" as="targetPoint" />
          </mxGeometry>
        </mxCell>
        <mxCell id="lrtOGTi42sTW7biP3XFJ-132" value="APISIX Gateway" style="rounded=1;whiteSpace=wrap;html=1;" vertex="1" parent="1">
          <mxGeometry x="399" y="3180" width="210" height="130" as="geometry" />
        </mxCell>
        <mxCell id="lrtOGTi42sTW7biP3XFJ-133" value="Consul_kv" style="rounded=1;whiteSpace=wrap;html=1;" vertex="1" parent="1">
          <mxGeometry x="479" y="3275" width="120" height="60" as="geometry" />
        </mxCell>
        <mxCell id="lrtOGTi42sTW7biP3XFJ-134" value="" style="endArrow=classic;html=1;rounded=0;exitX=0.5;exitY=1;exitDx=0;exitDy=0;entryX=0.5;entryY=0;entryDx=0;entryDy=0;" edge="1" parent="1" source="lrtOGTi42sTW7biP3XFJ-133" target="lrtOGTi42sTW7biP3XFJ-135">
          <mxGeometry width="50" height="50" relative="1" as="geometry">
            <mxPoint x="709" y="3230" as="sourcePoint" />
            <mxPoint x="749" y="3250" as="targetPoint" />
          </mxGeometry>
        </mxCell>
        <mxCell id="lrtOGTi42sTW7biP3XFJ-135" value="Consul" style="rounded=1;whiteSpace=wrap;html=1;" vertex="1" parent="1">
          <mxGeometry x="479" y="3360" width="120" height="60" as="geometry" />
        </mxCell>
        <mxCell id="lrtOGTi42sTW7biP3XFJ-145" value="" style="endArrow=none;html=1;rounded=0;exitX=1;exitY=0.5;exitDx=0;exitDy=0;" edge="1" parent="1" source="lrtOGTi42sTW7biP3XFJ-121">
          <mxGeometry width="50" height="50" relative="1" as="geometry">
            <mxPoint x="559" y="2910" as="sourcePoint" />
            <mxPoint x="849" y="2830" as="targetPoint" />
          </mxGeometry>
        </mxCell>
        <mxCell id="lrtOGTi42sTW7biP3XFJ-146" value="" style="endArrow=none;html=1;rounded=0;exitX=1;exitY=0.5;exitDx=0;exitDy=0;" edge="1" parent="1">
          <mxGeometry width="50" height="50" relative="1" as="geometry">
            <mxPoint x="799" y="2910" as="sourcePoint" />
            <mxPoint x="849" y="2910" as="targetPoint" />
          </mxGeometry>
        </mxCell>
        <mxCell id="lrtOGTi42sTW7biP3XFJ-147" value="" style="endArrow=none;html=1;rounded=0;" edge="1" parent="1">
          <mxGeometry width="50" height="50" relative="1" as="geometry">
            <mxPoint x="509" y="2920" as="sourcePoint" />
            <mxPoint x="509" y="2740" as="targetPoint" />
          </mxGeometry>
        </mxCell>
        <mxCell id="lrtOGTi42sTW7biP3XFJ-148" value="" style="endArrow=none;html=1;rounded=0;exitX=1;exitY=0.5;exitDx=0;exitDy=0;" edge="1" parent="1" source="lrtOGTi42sTW7biP3XFJ-115">
          <mxGeometry width="50" height="50" relative="1" as="geometry">
            <mxPoint x="559" y="2910" as="sourcePoint" />
            <mxPoint x="509" y="2830" as="targetPoint" />
          </mxGeometry>
        </mxCell>
        <mxCell id="lrtOGTi42sTW7biP3XFJ-149" value="Инстанс 1 (схема из пункта 3)" style="rounded=1;whiteSpace=wrap;html=1;fillColor=#E7FF51;" vertex="1" parent="1">
          <mxGeometry x="799" y="3011" width="260" height="60" as="geometry" />
        </mxCell>
        <mxCell id="lrtOGTi42sTW7biP3XFJ-150" value="Инстанс 2 (схема из пункта 3)" style="rounded=1;whiteSpace=wrap;html=1;fillColor=#66FF66;" vertex="1" parent="1">
          <mxGeometry x="799" y="3101" width="260" height="60" as="geometry" />
        </mxCell>
        <mxCell id="lrtOGTi42sTW7biP3XFJ-151" value="Инстанс 3 (схема из пункта 3)" style="rounded=1;whiteSpace=wrap;html=1;fillColor=#3399FF;" vertex="1" parent="1">
          <mxGeometry x="799" y="3186" width="260" height="60" as="geometry" />
        </mxCell>
        <mxCell id="lrtOGTi42sTW7biP3XFJ-152" value="" style="endArrow=classic;html=1;rounded=0;entryX=0;entryY=0.5;entryDx=0;entryDy=0;" edge="1" parent="1" target="lrtOGTi42sTW7biP3XFJ-149">
          <mxGeometry width="50" height="50" relative="1" as="geometry">
            <mxPoint x="769" y="3041" as="sourcePoint" />
            <mxPoint x="869" y="3041" as="targetPoint" />
          </mxGeometry>
        </mxCell>
        <mxCell id="lrtOGTi42sTW7biP3XFJ-153" value="" style="endArrow=classic;html=1;rounded=0;entryX=0;entryY=0.5;entryDx=0;entryDy=0;" edge="1" parent="1" target="lrtOGTi42sTW7biP3XFJ-150">
          <mxGeometry width="50" height="50" relative="1" as="geometry">
            <mxPoint x="769" y="3131" as="sourcePoint" />
            <mxPoint x="869" y="3041" as="targetPoint" />
          </mxGeometry>
        </mxCell>
        <mxCell id="lrtOGTi42sTW7biP3XFJ-154" value="" style="endArrow=classic;html=1;rounded=0;entryX=0;entryY=0.5;entryDx=0;entryDy=0;" edge="1" parent="1" target="lrtOGTi42sTW7biP3XFJ-151">
          <mxGeometry width="50" height="50" relative="1" as="geometry">
            <mxPoint x="769" y="3221" as="sourcePoint" />
            <mxPoint x="869" y="3041" as="targetPoint" />
          </mxGeometry>
        </mxCell>
        <mxCell id="lrtOGTi42sTW7biP3XFJ-155" value="" style="endArrow=classic;html=1;rounded=0;entryX=1;entryY=0.75;entryDx=0;entryDy=0;" edge="1" parent="1">
          <mxGeometry width="50" height="50" relative="1" as="geometry">
            <mxPoint x="1059" y="3041" as="sourcePoint" />
            <mxPoint x="719" y="3271" as="targetPoint" />
            <Array as="points">
              <mxPoint x="1109" y="3041" />
              <mxPoint x="1109" y="3281" />
            </Array>
          </mxGeometry>
        </mxCell>
        <mxCell id="lrtOGTi42sTW7biP3XFJ-156" value="" style="endArrow=none;html=1;rounded=0;exitX=1;exitY=0.5;exitDx=0;exitDy=0;" edge="1" parent="1" source="lrtOGTi42sTW7biP3XFJ-150">
          <mxGeometry width="50" height="50" relative="1" as="geometry">
            <mxPoint x="819" y="3211" as="sourcePoint" />
            <mxPoint x="1109" y="3131" as="targetPoint" />
          </mxGeometry>
        </mxCell>
        <mxCell id="lrtOGTi42sTW7biP3XFJ-157" value="" style="endArrow=none;html=1;rounded=0;exitX=1;exitY=0.5;exitDx=0;exitDy=0;" edge="1" parent="1">
          <mxGeometry width="50" height="50" relative="1" as="geometry">
            <mxPoint x="1059" y="3211" as="sourcePoint" />
            <mxPoint x="1109" y="3211" as="targetPoint" />
          </mxGeometry>
        </mxCell>
        <mxCell id="lrtOGTi42sTW7biP3XFJ-158" value="" style="endArrow=none;html=1;rounded=0;" edge="1" parent="1">
          <mxGeometry width="50" height="50" relative="1" as="geometry">
            <mxPoint x="769" y="3221" as="sourcePoint" />
            <mxPoint x="769" y="3041" as="targetPoint" />
          </mxGeometry>
        </mxCell>
        <mxCell id="lrtOGTi42sTW7biP3XFJ-159" value="" style="endArrow=none;html=1;rounded=0;" edge="1" parent="1">
          <mxGeometry width="50" height="50" relative="1" as="geometry">
            <mxPoint x="679" y="3130" as="sourcePoint" />
            <mxPoint x="769" y="3131" as="targetPoint" />
          </mxGeometry>
        </mxCell>
        <mxCell id="lrtOGTi42sTW7biP3XFJ-160" value="Инстанс 1 (схема из пункта 3)" style="rounded=1;whiteSpace=wrap;html=1;fillColor=#E7FF51;" vertex="1" parent="1">
          <mxGeometry x="799" y="3311" width="260" height="60" as="geometry" />
        </mxCell>
        <mxCell id="lrtOGTi42sTW7biP3XFJ-161" value="Инстанс 2 (схема из пункта 3)" style="rounded=1;whiteSpace=wrap;html=1;fillColor=#66FF66;" vertex="1" parent="1">
          <mxGeometry x="799" y="3401" width="260" height="60" as="geometry" />
        </mxCell>
        <mxCell id="lrtOGTi42sTW7biP3XFJ-162" value="Инстанс 3 (схема из пункта 3)" style="rounded=1;whiteSpace=wrap;html=1;fillColor=#3399FF;" vertex="1" parent="1">
          <mxGeometry x="799" y="3486" width="260" height="60" as="geometry" />
        </mxCell>
        <mxCell id="lrtOGTi42sTW7biP3XFJ-163" value="" style="endArrow=classic;html=1;rounded=0;entryX=0;entryY=0.5;entryDx=0;entryDy=0;" edge="1" parent="1" target="lrtOGTi42sTW7biP3XFJ-160">
          <mxGeometry width="50" height="50" relative="1" as="geometry">
            <mxPoint x="769" y="3341" as="sourcePoint" />
            <mxPoint x="869" y="3341" as="targetPoint" />
          </mxGeometry>
        </mxCell>
        <mxCell id="lrtOGTi42sTW7biP3XFJ-164" value="" style="endArrow=classic;html=1;rounded=0;entryX=0;entryY=0.5;entryDx=0;entryDy=0;" edge="1" parent="1" target="lrtOGTi42sTW7biP3XFJ-161">
          <mxGeometry width="50" height="50" relative="1" as="geometry">
            <mxPoint x="769" y="3431" as="sourcePoint" />
            <mxPoint x="869" y="3341" as="targetPoint" />
          </mxGeometry>
        </mxCell>
        <mxCell id="lrtOGTi42sTW7biP3XFJ-165" value="" style="endArrow=classic;html=1;rounded=0;entryX=0;entryY=0.5;entryDx=0;entryDy=0;" edge="1" parent="1" target="lrtOGTi42sTW7biP3XFJ-162">
          <mxGeometry width="50" height="50" relative="1" as="geometry">
            <mxPoint x="769" y="3521" as="sourcePoint" />
            <mxPoint x="869" y="3341" as="targetPoint" />
          </mxGeometry>
        </mxCell>
        <mxCell id="lrtOGTi42sTW7biP3XFJ-166" value="" style="endArrow=classic;html=1;rounded=0;entryX=0.5;entryY=1;entryDx=0;entryDy=0;" edge="1" parent="1" target="lrtOGTi42sTW7biP3XFJ-184">
          <mxGeometry width="50" height="50" relative="1" as="geometry">
            <mxPoint x="1059" y="3341" as="sourcePoint" />
            <mxPoint x="509" y="3571" as="targetPoint" />
            <Array as="points">
              <mxPoint x="1109" y="3341" />
              <mxPoint x="1109" y="3581" />
              <mxPoint x="549" y="3581" />
            </Array>
          </mxGeometry>
        </mxCell>
        <mxCell id="lrtOGTi42sTW7biP3XFJ-167" value="" style="endArrow=none;html=1;rounded=0;exitX=1;exitY=0.5;exitDx=0;exitDy=0;" edge="1" parent="1" source="lrtOGTi42sTW7biP3XFJ-161">
          <mxGeometry width="50" height="50" relative="1" as="geometry">
            <mxPoint x="819" y="3511" as="sourcePoint" />
            <mxPoint x="1109" y="3431" as="targetPoint" />
          </mxGeometry>
        </mxCell>
        <mxCell id="lrtOGTi42sTW7biP3XFJ-168" value="" style="endArrow=none;html=1;rounded=0;exitX=1;exitY=0.5;exitDx=0;exitDy=0;" edge="1" parent="1">
          <mxGeometry width="50" height="50" relative="1" as="geometry">
            <mxPoint x="1059" y="3511" as="sourcePoint" />
            <mxPoint x="1109" y="3511" as="targetPoint" />
          </mxGeometry>
        </mxCell>
        <mxCell id="lrtOGTi42sTW7biP3XFJ-169" value="" style="endArrow=none;html=1;rounded=0;" edge="1" parent="1">
          <mxGeometry width="50" height="50" relative="1" as="geometry">
            <mxPoint x="769" y="3521" as="sourcePoint" />
            <mxPoint x="769" y="3341" as="targetPoint" />
          </mxGeometry>
        </mxCell>
        <mxCell id="lrtOGTi42sTW7biP3XFJ-170" value="" style="endArrow=none;html=1;rounded=0;" edge="1" parent="1">
          <mxGeometry width="50" height="50" relative="1" as="geometry">
            <mxPoint x="679" y="3370" as="sourcePoint" />
            <mxPoint x="769" y="3431" as="targetPoint" />
          </mxGeometry>
        </mxCell>
        <mxCell id="lrtOGTi42sTW7biP3XFJ-171" value="Инстанс 1 (схема из пункта 3)" style="rounded=1;whiteSpace=wrap;html=1;fillColor=#E7FF51;" vertex="1" parent="1">
          <mxGeometry x="804" y="3611" width="260" height="60" as="geometry" />
        </mxCell>
        <mxCell id="lrtOGTi42sTW7biP3XFJ-172" value="Инстанс 2 (схема из пункта 3)" style="rounded=1;whiteSpace=wrap;html=1;fillColor=#66FF66;" vertex="1" parent="1">
          <mxGeometry x="804" y="3701" width="260" height="60" as="geometry" />
        </mxCell>
        <mxCell id="lrtOGTi42sTW7biP3XFJ-173" value="Инстанс 3 (схема из пункта 3)" style="rounded=1;whiteSpace=wrap;html=1;fillColor=#3399FF;" vertex="1" parent="1">
          <mxGeometry x="804" y="3786" width="260" height="60" as="geometry" />
        </mxCell>
        <mxCell id="lrtOGTi42sTW7biP3XFJ-174" value="" style="endArrow=classic;html=1;rounded=0;entryX=0;entryY=0.5;entryDx=0;entryDy=0;" edge="1" parent="1" target="lrtOGTi42sTW7biP3XFJ-171">
          <mxGeometry width="50" height="50" relative="1" as="geometry">
            <mxPoint x="774" y="3641" as="sourcePoint" />
            <mxPoint x="874" y="3641" as="targetPoint" />
          </mxGeometry>
        </mxCell>
        <mxCell id="lrtOGTi42sTW7biP3XFJ-175" value="" style="endArrow=classic;html=1;rounded=0;entryX=0;entryY=0.5;entryDx=0;entryDy=0;" edge="1" parent="1" target="lrtOGTi42sTW7biP3XFJ-172">
          <mxGeometry width="50" height="50" relative="1" as="geometry">
            <mxPoint x="774" y="3731" as="sourcePoint" />
            <mxPoint x="874" y="3641" as="targetPoint" />
          </mxGeometry>
        </mxCell>
        <mxCell id="lrtOGTi42sTW7biP3XFJ-176" value="" style="endArrow=classic;html=1;rounded=0;entryX=0;entryY=0.5;entryDx=0;entryDy=0;" edge="1" parent="1" target="lrtOGTi42sTW7biP3XFJ-173">
          <mxGeometry width="50" height="50" relative="1" as="geometry">
            <mxPoint x="774" y="3821" as="sourcePoint" />
            <mxPoint x="874" y="3641" as="targetPoint" />
          </mxGeometry>
        </mxCell>
        <mxCell id="lrtOGTi42sTW7biP3XFJ-177" value="" style="endArrow=classic;html=1;rounded=0;" edge="1" parent="1">
          <mxGeometry width="50" height="50" relative="1" as="geometry">
            <mxPoint x="1064" y="3641" as="sourcePoint" />
            <mxPoint x="729" y="3871" as="targetPoint" />
            <Array as="points">
              <mxPoint x="1114" y="3641" />
              <mxPoint x="1114" y="3881" />
            </Array>
          </mxGeometry>
        </mxCell>
        <mxCell id="lrtOGTi42sTW7biP3XFJ-178" value="" style="endArrow=none;html=1;rounded=0;exitX=1;exitY=0.5;exitDx=0;exitDy=0;" edge="1" parent="1" source="lrtOGTi42sTW7biP3XFJ-172">
          <mxGeometry width="50" height="50" relative="1" as="geometry">
            <mxPoint x="824" y="3811" as="sourcePoint" />
            <mxPoint x="1114" y="3731" as="targetPoint" />
          </mxGeometry>
        </mxCell>
        <mxCell id="lrtOGTi42sTW7biP3XFJ-179" value="" style="endArrow=none;html=1;rounded=0;exitX=1;exitY=0.5;exitDx=0;exitDy=0;" edge="1" parent="1">
          <mxGeometry width="50" height="50" relative="1" as="geometry">
            <mxPoint x="1064" y="3811" as="sourcePoint" />
            <mxPoint x="1114" y="3811" as="targetPoint" />
          </mxGeometry>
        </mxCell>
        <mxCell id="lrtOGTi42sTW7biP3XFJ-180" value="" style="endArrow=none;html=1;rounded=0;" edge="1" parent="1">
          <mxGeometry width="50" height="50" relative="1" as="geometry">
            <mxPoint x="774" y="3821" as="sourcePoint" />
            <mxPoint x="774" y="3641" as="targetPoint" />
          </mxGeometry>
        </mxCell>
        <mxCell id="lrtOGTi42sTW7biP3XFJ-181" value="" style="endArrow=none;html=1;rounded=0;" edge="1" parent="1">
          <mxGeometry width="50" height="50" relative="1" as="geometry">
            <mxPoint x="679" y="3720" as="sourcePoint" />
            <mxPoint x="774" y="3731" as="targetPoint" />
          </mxGeometry>
        </mxCell>
        <mxCell id="lrtOGTi42sTW7biP3XFJ-183" value="pymongo-api" style="rounded=1;whiteSpace=wrap;html=1;" vertex="1" parent="1">
          <mxGeometry x="549" y="3090" width="120" height="60" as="geometry" />
        </mxCell>
        <mxCell id="lrtOGTi42sTW7biP3XFJ-184" value="pymongo-api" style="rounded=1;whiteSpace=wrap;html=1;" vertex="1" parent="1">
          <mxGeometry x="479" y="3456" width="120" height="60" as="geometry" />
        </mxCell>
        <mxCell id="lrtOGTi42sTW7biP3XFJ-185" value="Actor" style="shape=umlActor;verticalLabelPosition=bottom;verticalAlign=top;html=1;outlineConnect=0;" vertex="1" parent="1">
          <mxGeometry x="59" y="3165" width="30" height="60" as="geometry" />
        </mxCell>
        <mxCell id="lrtOGTi42sTW7biP3XFJ-186" value="Actor" style="shape=umlActor;verticalLabelPosition=bottom;verticalAlign=top;html=1;outlineConnect=0;" vertex="1" parent="1">
          <mxGeometry x="59" y="3590" width="30" height="60" as="geometry" />
        </mxCell>
        <mxCell id="lrtOGTi42sTW7biP3XFJ-187" value="Actor" style="shape=umlActor;verticalLabelPosition=bottom;verticalAlign=top;html=1;outlineConnect=0;" vertex="1" parent="1">
          <mxGeometry x="99" y="3590" width="30" height="60" as="geometry" />
        </mxCell>
        <mxCell id="lrtOGTi42sTW7biP3XFJ-188" value="Покупатели" style="text;html=1;align=center;verticalAlign=middle;whiteSpace=wrap;rounded=0;" vertex="1" parent="1">
          <mxGeometry x="59" y="3255" width="60" height="30" as="geometry" />
        </mxCell>
        <mxCell id="lrtOGTi42sTW7biP3XFJ-189" value="Продавцы" style="text;html=1;align=center;verticalAlign=middle;whiteSpace=wrap;rounded=0;" vertex="1" parent="1">
          <mxGeometry x="64" y="3671" width="60" height="30" as="geometry" />
        </mxCell>
        <mxCell id="lrtOGTi42sTW7biP3XFJ-190" value="Административная панель ИМ/Nginx" style="rounded=1;whiteSpace=wrap;html=1;" vertex="1" parent="1">
          <mxGeometry x="169" y="3590" width="120" height="60" as="geometry" />
        </mxCell>
        <mxCell id="lrtOGTi42sTW7biP3XFJ-192" value="" style="endArrow=classic;html=1;rounded=0;entryX=0;entryY=0.846;entryDx=0;entryDy=0;entryPerimeter=0;" edge="1" parent="1" target="lrtOGTi42sTW7biP3XFJ-132">
          <mxGeometry width="50" height="50" relative="1" as="geometry">
            <mxPoint x="219" y="3590" as="sourcePoint" />
            <mxPoint x="279.03999999999996" y="3429.98" as="targetPoint" />
          </mxGeometry>
        </mxCell>
        <mxCell id="lrtOGTi42sTW7biP3XFJ-193" value="Сайт React/Nginx" style="rounded=1;whiteSpace=wrap;html=1;" vertex="1" parent="1">
          <mxGeometry x="159" y="3225" width="120" height="60" as="geometry" />
        </mxCell>
        <mxCell id="lrtOGTi42sTW7biP3XFJ-194" value="" style="endArrow=classic;html=1;rounded=0;exitX=0.5;exitY=0;exitDx=0;exitDy=0;entryX=0;entryY=0.5;entryDx=0;entryDy=0;" edge="1" parent="1" source="lrtOGTi42sTW7biP3XFJ-132" target="lrtOGTi42sTW7biP3XFJ-183">
          <mxGeometry width="50" height="50" relative="1" as="geometry">
            <mxPoint x="559" y="3010" as="sourcePoint" />
            <mxPoint x="609" y="2960" as="targetPoint" />
          </mxGeometry>
        </mxCell>
        <mxCell id="lrtOGTi42sTW7biP3XFJ-195" value="&lt;font face=&quot;Helvetica&quot; style=&quot;font-size: 12px;&quot;&gt;Получить данные приложения&lt;/font&gt;" style="text;html=1;align=center;verticalAlign=middle;whiteSpace=wrap;rounded=0;" vertex="1" parent="1">
          <mxGeometry x="389" y="3131" width="170" height="30" as="geometry" />
        </mxCell>
        <mxCell id="lrtOGTi42sTW7biP3XFJ-196" value="" style="endArrow=none;html=1;rounded=0;" edge="1" parent="1">
          <mxGeometry width="50" height="50" relative="1" as="geometry">
            <mxPoint x="729" y="3870" as="sourcePoint" />
            <mxPoint x="719" y="3270" as="targetPoint" />
          </mxGeometry>
        </mxCell>
        <mxCell id="lrtOGTi42sTW7biP3XFJ-197" value="" style="endArrow=none;html=1;rounded=0;" edge="1" parent="1">
          <mxGeometry width="50" height="50" relative="1" as="geometry">
            <mxPoint x="679" y="3721" as="sourcePoint" />
            <mxPoint x="679" y="3130" as="targetPoint" />
          </mxGeometry>
        </mxCell>
        <mxCell id="lrtOGTi42sTW7biP3XFJ-198" value="" style="endArrow=none;html=1;rounded=0;entryX=1;entryY=0.5;entryDx=0;entryDy=0;" edge="1" parent="1" target="lrtOGTi42sTW7biP3XFJ-183">
          <mxGeometry width="50" height="50" relative="1" as="geometry">
            <mxPoint x="679" y="3130" as="sourcePoint" />
            <mxPoint x="609" y="3420" as="targetPoint" />
          </mxGeometry>
        </mxCell>
        <mxCell id="lrtOGTi42sTW7biP3XFJ-199" value="" style="endArrow=classic;html=1;rounded=0;entryX=0.5;entryY=1;entryDx=0;entryDy=0;exitX=0.5;exitY=0;exitDx=0;exitDy=0;" edge="1" parent="1" source="lrtOGTi42sTW7biP3XFJ-184" target="lrtOGTi42sTW7biP3XFJ-135">
          <mxGeometry width="50" height="50" relative="1" as="geometry">
            <mxPoint x="559" y="3470" as="sourcePoint" />
            <mxPoint x="609" y="3420" as="targetPoint" />
          </mxGeometry>
        </mxCell>
        <mxCell id="lrtOGTi42sTW7biP3XFJ-200" value="&lt;font style=&quot;font-size: 12px;&quot;&gt;&lt;b&gt;2. Хэшированное ш&lt;span style=&quot;color: rgba(0, 0, 0, 0.85); font-family: &amp;quot;YS Text&amp;quot;, sans-serif; text-align: left; white-space-collapse: preserve-breaks; background-color: rgb(255, 255, 255);&quot;&gt;ардирование в MongoDB (2 шарда)&lt;/span&gt;&lt;/b&gt;&lt;/font&gt;" style="text;html=1;align=center;verticalAlign=middle;whiteSpace=wrap;rounded=0;" vertex="1" parent="1">
          <mxGeometry x="79" y="850" width="570" height="40" as="geometry" />
        </mxCell>
        <mxCell id="lrtOGTi42sTW7biP3XFJ-201" value="MongoDBases Сегмент 1&lt;div&gt;&lt;br&gt;&lt;/div&gt;&lt;div&gt;&lt;br&gt;&lt;/div&gt;&lt;div&gt;&lt;br&gt;&lt;/div&gt;&lt;div&gt;&lt;br&gt;&lt;/div&gt;&lt;div&gt;&lt;br&gt;&lt;/div&gt;&lt;div&gt;&lt;br&gt;&lt;/div&gt;&lt;div&gt;&lt;br&gt;&lt;/div&gt;&lt;div&gt;&lt;br&gt;&lt;/div&gt;&lt;div&gt;&lt;br&gt;&lt;/div&gt;" style="shape=cylinder3;whiteSpace=wrap;html=1;boundedLbl=1;backgroundOutline=1;size=15;" vertex="1" parent="1">
          <mxGeometry x="630" y="930" width="170" height="140" as="geometry" />
        </mxCell>
        <mxCell id="lrtOGTi42sTW7biP3XFJ-202" value="pymongo-api" style="rounded=1;whiteSpace=wrap;html=1;" vertex="1" parent="1">
          <mxGeometry x="50" y="1020" width="120" height="60" as="geometry" />
        </mxCell>
        <mxCell id="lrtOGTi42sTW7biP3XFJ-203" style="edgeStyle=orthogonalEdgeStyle;rounded=0;orthogonalLoop=1;jettySize=auto;html=1;exitX=1;exitY=0.5;exitDx=0;exitDy=0;entryX=0;entryY=0.5;entryDx=0;entryDy=0;entryPerimeter=0;" edge="1" parent="1" source="lrtOGTi42sTW7biP3XFJ-202">
          <mxGeometry relative="1" as="geometry">
            <mxPoint x="250" y="1050" as="targetPoint" />
          </mxGeometry>
        </mxCell>
        <mxCell id="lrtOGTi42sTW7biP3XFJ-206" value="Драйвер моста" style="rounded=1;whiteSpace=wrap;html=1;" vertex="1" parent="1">
          <mxGeometry x="250" y="1020" width="120" height="60" as="geometry" />
        </mxCell>
        <mxCell id="lrtOGTi42sTW7biP3XFJ-207" value="Роутер (mongos_router)" style="rounded=1;whiteSpace=wrap;html=1;" vertex="1" parent="1">
          <mxGeometry x="410" y="1020" width="120" height="60" as="geometry" />
        </mxCell>
        <mxCell id="lrtOGTi42sTW7biP3XFJ-208" value="" style="endArrow=classic;html=1;rounded=0;exitX=1;exitY=0.5;exitDx=0;exitDy=0;entryX=0;entryY=0.5;entryDx=0;entryDy=0;" edge="1" parent="1" source="lrtOGTi42sTW7biP3XFJ-206" target="lrtOGTi42sTW7biP3XFJ-207">
          <mxGeometry width="50" height="50" relative="1" as="geometry">
            <mxPoint x="580" y="1010" as="sourcePoint" />
            <mxPoint x="630" y="960" as="targetPoint" />
          </mxGeometry>
        </mxCell>
        <mxCell id="lrtOGTi42sTW7biP3XFJ-209" value="" style="endArrow=classic;html=1;rounded=0;entryX=1;entryY=0.75;entryDx=0;entryDy=0;exitX=0;exitY=0.75;exitDx=0;exitDy=0;" edge="1" parent="1" source="lrtOGTi42sTW7biP3XFJ-207" target="lrtOGTi42sTW7biP3XFJ-206">
          <mxGeometry width="50" height="50" relative="1" as="geometry">
            <mxPoint x="580" y="1010" as="sourcePoint" />
            <mxPoint x="630" y="960" as="targetPoint" />
          </mxGeometry>
        </mxCell>
        <mxCell id="lrtOGTi42sTW7biP3XFJ-210" value="MongoDB Сегмент 2&lt;div&gt;&lt;br&gt;&lt;/div&gt;&lt;div&gt;&lt;br&gt;&lt;/div&gt;&lt;div&gt;&lt;br&gt;&lt;/div&gt;&lt;div&gt;&lt;br&gt;&lt;/div&gt;&lt;div&gt;&lt;br&gt;&lt;/div&gt;&lt;div&gt;&lt;br&gt;&lt;/div&gt;&lt;div&gt;&lt;br&gt;&lt;/div&gt;&lt;div&gt;&lt;br&gt;&lt;/div&gt;&lt;div&gt;&lt;br&gt;&lt;/div&gt;" style="shape=cylinder3;whiteSpace=wrap;html=1;boundedLbl=1;backgroundOutline=1;size=15;" vertex="1" parent="1">
          <mxGeometry x="630" y="1101" width="180" height="140" as="geometry" />
        </mxCell>
        <mxCell id="lrtOGTi42sTW7biP3XFJ-213" value="" style="endArrow=classic;html=1;rounded=0;exitX=1;exitY=0.25;exitDx=0;exitDy=0;entryX=0;entryY=0.5;entryDx=0;entryDy=0;entryPerimeter=0;" edge="1" parent="1" source="lrtOGTi42sTW7biP3XFJ-207" target="lrtOGTi42sTW7biP3XFJ-201">
          <mxGeometry width="50" height="50" relative="1" as="geometry">
            <mxPoint x="580" y="1130" as="sourcePoint" />
            <mxPoint x="630" y="1080" as="targetPoint" />
          </mxGeometry>
        </mxCell>
        <mxCell id="lrtOGTi42sTW7biP3XFJ-214" value="" style="endArrow=classic;html=1;rounded=0;entryX=-0.003;entryY=0.533;entryDx=0;entryDy=0;entryPerimeter=0;exitX=1;exitY=0.75;exitDx=0;exitDy=0;" edge="1" parent="1" source="lrtOGTi42sTW7biP3XFJ-207" target="lrtOGTi42sTW7biP3XFJ-210">
          <mxGeometry width="50" height="50" relative="1" as="geometry">
            <mxPoint x="580" y="1130" as="sourcePoint" />
            <mxPoint x="630" y="1080" as="targetPoint" />
          </mxGeometry>
        </mxCell>
        <mxCell id="lrtOGTi42sTW7biP3XFJ-221" value="Конфигурационный сервер" style="rounded=1;whiteSpace=wrap;html=1;" vertex="1" parent="1">
          <mxGeometry x="410" y="1130" width="120" height="60" as="geometry" />
        </mxCell>
        <mxCell id="lrtOGTi42sTW7biP3XFJ-222" value="" style="endArrow=classic;html=1;rounded=0;exitX=0.5;exitY=1;exitDx=0;exitDy=0;entryX=0.5;entryY=0;entryDx=0;entryDy=0;" edge="1" parent="1" source="lrtOGTi42sTW7biP3XFJ-207" target="lrtOGTi42sTW7biP3XFJ-221">
          <mxGeometry width="50" height="50" relative="1" as="geometry">
            <mxPoint x="580" y="1250" as="sourcePoint" />
            <mxPoint x="630" y="1200" as="targetPoint" />
          </mxGeometry>
        </mxCell>
        <mxCell id="lrtOGTi42sTW7biP3XFJ-223" value="" style="endArrow=classic;html=1;rounded=0;exitX=-0.003;exitY=0.608;exitDx=0;exitDy=0;exitPerimeter=0;entryX=1;entryY=0;entryDx=0;entryDy=0;" edge="1" parent="1" source="lrtOGTi42sTW7biP3XFJ-201" target="lrtOGTi42sTW7biP3XFJ-221">
          <mxGeometry width="50" height="50" relative="1" as="geometry">
            <mxPoint x="580" y="1250" as="sourcePoint" />
            <mxPoint x="630" y="1200" as="targetPoint" />
          </mxGeometry>
        </mxCell>
        <mxCell id="lrtOGTi42sTW7biP3XFJ-224" value="" style="endArrow=classic;html=1;rounded=0;exitX=0;exitY=0.654;exitDx=0;exitDy=0;exitPerimeter=0;entryX=1;entryY=1;entryDx=0;entryDy=0;" edge="1" parent="1" source="lrtOGTi42sTW7biP3XFJ-210" target="lrtOGTi42sTW7biP3XFJ-221">
          <mxGeometry width="50" height="50" relative="1" as="geometry">
            <mxPoint x="580" y="1250" as="sourcePoint" />
            <mxPoint x="630" y="1200" as="targetPoint" />
          </mxGeometry>
        </mxCell>
        <mxCell id="lrtOGTi42sTW7biP3XFJ-225" value="" style="rounded=1;whiteSpace=wrap;html=1;fillColor=#E7FF51;" vertex="1" parent="1">
          <mxGeometry x="60" y="5800" width="1150" height="560" as="geometry" />
        </mxCell>
        <mxCell id="lrtOGTi42sTW7biP3XFJ-226" value="MongoDB" style="shape=cylinder3;whiteSpace=wrap;html=1;boundedLbl=1;backgroundOutline=1;size=15;" vertex="1" parent="1">
          <mxGeometry x="591" y="3970" width="60" height="80" as="geometry" />
        </mxCell>
        <mxCell id="lrtOGTi42sTW7biP3XFJ-227" value="pymongo-api" style="rounded=1;whiteSpace=wrap;html=1;" vertex="1" parent="1">
          <mxGeometry x="391" y="3980" width="120" height="60" as="geometry" />
        </mxCell>
        <mxCell id="lrtOGTi42sTW7biP3XFJ-228" style="edgeStyle=orthogonalEdgeStyle;rounded=0;orthogonalLoop=1;jettySize=auto;html=1;exitX=1;exitY=0.5;exitDx=0;exitDy=0;entryX=0;entryY=0.5;entryDx=0;entryDy=0;entryPerimeter=0;" edge="1" parent="1" source="lrtOGTi42sTW7biP3XFJ-227" target="lrtOGTi42sTW7biP3XFJ-226">
          <mxGeometry relative="1" as="geometry" />
        </mxCell>
        <mxCell id="lrtOGTi42sTW7biP3XFJ-229" value="&lt;b&gt;Было&lt;/b&gt;" style="text;html=1;align=center;verticalAlign=middle;whiteSpace=wrap;rounded=0;" vertex="1" parent="1">
          <mxGeometry x="141" y="3930" width="80" height="40" as="geometry" />
        </mxCell>
        <mxCell id="lrtOGTi42sTW7biP3XFJ-230" value="&lt;font style=&quot;font-size: 12px;&quot;&gt;&lt;b&gt;1. Хэшированное ш&lt;span style=&quot;color: rgba(0, 0, 0, 0.85); font-family: &amp;quot;YS Text&amp;quot;, sans-serif; text-align: left; white-space-collapse: preserve-breaks; background-color: rgb(255, 255, 255);&quot;&gt;ардирование в MongoDB для повышения производительности (2 шарда)&lt;/span&gt;&lt;/b&gt;&lt;/font&gt;" style="text;html=1;align=center;verticalAlign=middle;whiteSpace=wrap;rounded=0;" vertex="1" parent="1">
          <mxGeometry x="131" y="4100" width="570" height="40" as="geometry" />
        </mxCell>
        <mxCell id="lrtOGTi42sTW7biP3XFJ-231" value="MongoDB&lt;div&gt;&lt;br&gt;&lt;/div&gt;&lt;div&gt;&lt;br&gt;&lt;/div&gt;&lt;div&gt;&lt;br&gt;&lt;/div&gt;&lt;div&gt;&lt;br&gt;&lt;/div&gt;&lt;div&gt;&lt;br&gt;&lt;/div&gt;&lt;div&gt;&lt;br&gt;&lt;/div&gt;&lt;div&gt;&lt;br&gt;&lt;/div&gt;&lt;div&gt;&lt;br&gt;&lt;/div&gt;&lt;div&gt;&lt;br&gt;&lt;/div&gt;&lt;div&gt;&lt;br&gt;&lt;/div&gt;&lt;div&gt;&lt;br&gt;&lt;/div&gt;&lt;div&gt;&lt;br&gt;&lt;/div&gt;&lt;div&gt;&lt;br&gt;&lt;/div&gt;&lt;div&gt;&lt;br&gt;&lt;/div&gt;&lt;div&gt;&lt;br&gt;&lt;/div&gt;&lt;div&gt;&lt;br&gt;&lt;/div&gt;&lt;div&gt;&lt;br&gt;&lt;/div&gt;&lt;div&gt;&lt;br&gt;&lt;/div&gt;&lt;div&gt;&lt;br&gt;&lt;/div&gt;&lt;div&gt;&lt;br&gt;&lt;/div&gt;&lt;div&gt;&lt;br&gt;&lt;/div&gt;&lt;div&gt;&lt;br&gt;&lt;/div&gt;&lt;div&gt;&lt;br&gt;&lt;/div&gt;&lt;div&gt;&lt;br&gt;&lt;/div&gt;&lt;div&gt;&lt;br&gt;&lt;/div&gt;&lt;div&gt;&lt;br&gt;&lt;/div&gt;&lt;div&gt;&lt;br&gt;&lt;/div&gt;" style="shape=cylinder3;whiteSpace=wrap;html=1;boundedLbl=1;backgroundOutline=1;size=15;" vertex="1" parent="1">
          <mxGeometry x="601" y="4160" width="340" height="450" as="geometry" />
        </mxCell>
        <mxCell id="lrtOGTi42sTW7biP3XFJ-232" value="pymongo-api" style="rounded=1;whiteSpace=wrap;html=1;" vertex="1" parent="1">
          <mxGeometry x="401" y="4310" width="120" height="60" as="geometry" />
        </mxCell>
        <mxCell id="lrtOGTi42sTW7biP3XFJ-233" style="edgeStyle=orthogonalEdgeStyle;rounded=0;orthogonalLoop=1;jettySize=auto;html=1;exitX=1;exitY=0.5;exitDx=0;exitDy=0;entryX=0;entryY=0.5;entryDx=0;entryDy=0;entryPerimeter=0;" edge="1" parent="1" source="lrtOGTi42sTW7biP3XFJ-232">
          <mxGeometry relative="1" as="geometry">
            <mxPoint x="601" y="4340" as="targetPoint" />
          </mxGeometry>
        </mxCell>
        <mxCell id="lrtOGTi42sTW7biP3XFJ-234" value="Ключ шарда" style="rounded=1;whiteSpace=wrap;html=1;" vertex="1" parent="1">
          <mxGeometry x="711" y="4210" width="120" height="60" as="geometry" />
        </mxCell>
        <mxCell id="lrtOGTi42sTW7biP3XFJ-235" value="Хэш-функция" style="rounded=1;whiteSpace=wrap;html=1;" vertex="1" parent="1">
          <mxGeometry x="711" y="4280" width="120" height="60" as="geometry" />
        </mxCell>
        <mxCell id="lrtOGTi42sTW7biP3XFJ-236" value="Таблицы с идентификаторами столбцов и их соответствующими хэш-значениями" style="rounded=1;whiteSpace=wrap;html=1;" vertex="1" parent="1">
          <mxGeometry x="661" y="4350" width="220" height="60" as="geometry" />
        </mxCell>
        <mxCell id="lrtOGTi42sTW7biP3XFJ-237" value="Сегмент (шард) 1&amp;nbsp;" style="rounded=1;whiteSpace=wrap;html=1;" vertex="1" parent="1">
          <mxGeometry x="631" y="4430" width="140" height="110" as="geometry" />
        </mxCell>
        <mxCell id="lrtOGTi42sTW7biP3XFJ-238" value="Сегмент (шард) 2&amp;nbsp;" style="rounded=1;whiteSpace=wrap;html=1;" vertex="1" parent="1">
          <mxGeometry x="791" y="4430" width="140" height="110" as="geometry" />
        </mxCell>
        <mxCell id="lrtOGTi42sTW7biP3XFJ-239" value="" style="endArrow=classic;html=1;rounded=0;exitX=0.5;exitY=1;exitDx=0;exitDy=0;entryX=0.5;entryY=0;entryDx=0;entryDy=0;" edge="1" parent="1" source="lrtOGTi42sTW7biP3XFJ-234" target="lrtOGTi42sTW7biP3XFJ-235">
          <mxGeometry width="50" height="50" relative="1" as="geometry">
            <mxPoint x="601" y="4340" as="sourcePoint" />
            <mxPoint x="651" y="4290" as="targetPoint" />
          </mxGeometry>
        </mxCell>
        <mxCell id="lrtOGTi42sTW7biP3XFJ-240" value="" style="endArrow=classic;html=1;rounded=0;exitX=0.5;exitY=1;exitDx=0;exitDy=0;entryX=0.5;entryY=0;entryDx=0;entryDy=0;" edge="1" parent="1" source="lrtOGTi42sTW7biP3XFJ-235" target="lrtOGTi42sTW7biP3XFJ-236">
          <mxGeometry width="50" height="50" relative="1" as="geometry">
            <mxPoint x="601" y="4340" as="sourcePoint" />
            <mxPoint x="651" y="4290" as="targetPoint" />
          </mxGeometry>
        </mxCell>
        <mxCell id="lrtOGTi42sTW7biP3XFJ-241" value="" style="endArrow=classic;html=1;rounded=0;exitX=0.25;exitY=1;exitDx=0;exitDy=0;entryX=0.5;entryY=0;entryDx=0;entryDy=0;" edge="1" parent="1" source="lrtOGTi42sTW7biP3XFJ-236" target="lrtOGTi42sTW7biP3XFJ-237">
          <mxGeometry width="50" height="50" relative="1" as="geometry">
            <mxPoint x="601" y="4340" as="sourcePoint" />
            <mxPoint x="651" y="4290" as="targetPoint" />
          </mxGeometry>
        </mxCell>
        <mxCell id="lrtOGTi42sTW7biP3XFJ-242" value="" style="endArrow=classic;html=1;rounded=0;exitX=0.75;exitY=1;exitDx=0;exitDy=0;entryX=0.5;entryY=0;entryDx=0;entryDy=0;" edge="1" parent="1" source="lrtOGTi42sTW7biP3XFJ-236" target="lrtOGTi42sTW7biP3XFJ-238">
          <mxGeometry width="50" height="50" relative="1" as="geometry">
            <mxPoint x="601" y="4340" as="sourcePoint" />
            <mxPoint x="651" y="4290" as="targetPoint" />
          </mxGeometry>
        </mxCell>
        <mxCell id="lrtOGTi42sTW7biP3XFJ-243" value="&lt;div style=&quot;text-align: center;&quot;&gt;&lt;b style=&quot;&quot;&gt;&lt;span style=&quot;text-align: left; background-color: rgb(255, 255, 255); color: rgba(0, 0, 0, 0.85);&quot;&gt;3. Пункт 2 (шардирование) + репликация&amp;nbsp;&lt;/span&gt;&lt;span style=&quot;color: rgba(0, 0, 0, 0.85); background-color: rgb(255, 255, 255); font-family: &amp;quot;YS Text&amp;quot;, sans-serif; text-align: left; white-space-collapse: preserve-breaks;&quot;&gt;для повышения производительности (2 шарда)&lt;/span&gt;&lt;/b&gt;&lt;/div&gt;" style="text;html=1;align=center;verticalAlign=middle;whiteSpace=wrap;rounded=0;" vertex="1" parent="1">
          <mxGeometry x="130" y="5150" width="570" height="40" as="geometry" />
        </mxCell>
        <mxCell id="lrtOGTi42sTW7biP3XFJ-244" value="MongoDBases Сегмент 1&lt;div&gt;&lt;br&gt;&lt;/div&gt;&lt;div&gt;&lt;br&gt;&lt;/div&gt;&lt;div&gt;&lt;br&gt;&lt;/div&gt;&lt;div&gt;&lt;br&gt;&lt;/div&gt;&lt;div&gt;&lt;br&gt;&lt;/div&gt;&lt;div&gt;&lt;br&gt;&lt;/div&gt;&lt;div&gt;&lt;br&gt;&lt;/div&gt;&lt;div&gt;&lt;br&gt;&lt;/div&gt;&lt;div&gt;&lt;br&gt;&lt;/div&gt;&lt;div&gt;&lt;br&gt;&lt;/div&gt;&lt;div&gt;&lt;br&gt;&lt;/div&gt;&lt;div&gt;&lt;br&gt;&lt;/div&gt;&lt;div&gt;&lt;br&gt;&lt;/div&gt;&lt;div&gt;&lt;br&gt;&lt;/div&gt;&lt;div&gt;&lt;br&gt;&lt;/div&gt;&lt;div&gt;&lt;br&gt;&lt;/div&gt;" style="shape=cylinder3;whiteSpace=wrap;html=1;boundedLbl=1;backgroundOutline=1;size=15;" vertex="1" parent="1">
          <mxGeometry x="640" y="5200" width="300" height="240" as="geometry" />
        </mxCell>
        <mxCell id="lrtOGTi42sTW7biP3XFJ-245" value="pymongo-api" style="rounded=1;whiteSpace=wrap;html=1;" vertex="1" parent="1">
          <mxGeometry x="70" y="5360" width="120" height="60" as="geometry" />
        </mxCell>
        <mxCell id="lrtOGTi42sTW7biP3XFJ-246" style="edgeStyle=orthogonalEdgeStyle;rounded=0;orthogonalLoop=1;jettySize=auto;html=1;exitX=1;exitY=0.5;exitDx=0;exitDy=0;entryX=0;entryY=0.5;entryDx=0;entryDy=0;entryPerimeter=0;" edge="1" parent="1" source="lrtOGTi42sTW7biP3XFJ-245">
          <mxGeometry relative="1" as="geometry">
            <mxPoint x="270" y="5390" as="targetPoint" />
          </mxGeometry>
        </mxCell>
        <mxCell id="lrtOGTi42sTW7biP3XFJ-247" value="Первичный сервер сегмента 1 (реплика 1)&amp;nbsp;" style="rounded=1;whiteSpace=wrap;html=1;" vertex="1" parent="1">
          <mxGeometry x="690" y="5240" width="220" height="60" as="geometry" />
        </mxCell>
        <mxCell id="lrtOGTi42sTW7biP3XFJ-248" value="Реплика 2 (вторичный сервер) сегмента 1" style="rounded=1;whiteSpace=wrap;html=1;" vertex="1" parent="1">
          <mxGeometry x="650" y="5320" width="140" height="110" as="geometry" />
        </mxCell>
        <mxCell id="lrtOGTi42sTW7biP3XFJ-249" value="Драйвер моста" style="rounded=1;whiteSpace=wrap;html=1;" vertex="1" parent="1">
          <mxGeometry x="270" y="5360" width="120" height="60" as="geometry" />
        </mxCell>
        <mxCell id="lrtOGTi42sTW7biP3XFJ-250" value="Роутер (mongos_router)" style="rounded=1;whiteSpace=wrap;html=1;" vertex="1" parent="1">
          <mxGeometry x="430" y="5360" width="120" height="60" as="geometry" />
        </mxCell>
        <mxCell id="lrtOGTi42sTW7biP3XFJ-251" value="" style="endArrow=classic;html=1;rounded=0;exitX=1;exitY=0.5;exitDx=0;exitDy=0;entryX=0;entryY=0.5;entryDx=0;entryDy=0;" edge="1" parent="1" source="lrtOGTi42sTW7biP3XFJ-249" target="lrtOGTi42sTW7biP3XFJ-250">
          <mxGeometry width="50" height="50" relative="1" as="geometry">
            <mxPoint x="600" y="5350" as="sourcePoint" />
            <mxPoint x="650" y="5300" as="targetPoint" />
          </mxGeometry>
        </mxCell>
        <mxCell id="lrtOGTi42sTW7biP3XFJ-252" value="" style="endArrow=classic;html=1;rounded=0;entryX=1;entryY=0.75;entryDx=0;entryDy=0;exitX=0;exitY=0.75;exitDx=0;exitDy=0;" edge="1" parent="1" source="lrtOGTi42sTW7biP3XFJ-250" target="lrtOGTi42sTW7biP3XFJ-249">
          <mxGeometry width="50" height="50" relative="1" as="geometry">
            <mxPoint x="600" y="5350" as="sourcePoint" />
            <mxPoint x="650" y="5300" as="targetPoint" />
          </mxGeometry>
        </mxCell>
        <mxCell id="lrtOGTi42sTW7biP3XFJ-253" value="MongoDBases Сегмент 2&lt;div&gt;&lt;br&gt;&lt;/div&gt;&lt;div&gt;&lt;br&gt;&lt;/div&gt;&lt;div&gt;&lt;br&gt;&lt;/div&gt;&lt;div&gt;&lt;br&gt;&lt;/div&gt;&lt;div&gt;&lt;br&gt;&lt;/div&gt;&lt;div&gt;&lt;br&gt;&lt;/div&gt;&lt;div&gt;&lt;br&gt;&lt;/div&gt;&lt;div&gt;&lt;br&gt;&lt;/div&gt;&lt;div&gt;&lt;br&gt;&lt;/div&gt;&lt;div&gt;&lt;br&gt;&lt;/div&gt;&lt;div&gt;&lt;br&gt;&lt;/div&gt;&lt;div&gt;&lt;br&gt;&lt;/div&gt;&lt;div&gt;&lt;br&gt;&lt;/div&gt;&lt;div&gt;&lt;br&gt;&lt;/div&gt;&lt;div&gt;&lt;br&gt;&lt;/div&gt;&lt;div&gt;&lt;br&gt;&lt;/div&gt;" style="shape=cylinder3;whiteSpace=wrap;html=1;boundedLbl=1;backgroundOutline=1;size=15;" vertex="1" parent="1">
          <mxGeometry x="640" y="5470" width="300" height="240" as="geometry" />
        </mxCell>
        <mxCell id="lrtOGTi42sTW7biP3XFJ-254" value="Первичный сервер сегмента 2 (реплика 1)&amp;nbsp;" style="rounded=1;whiteSpace=wrap;html=1;" vertex="1" parent="1">
          <mxGeometry x="690" y="5510" width="220" height="60" as="geometry" />
        </mxCell>
        <mxCell id="lrtOGTi42sTW7biP3XFJ-255" value="Реплика 2 (вторичный сервер) сегмента 2" style="rounded=1;whiteSpace=wrap;html=1;" vertex="1" parent="1">
          <mxGeometry x="650" y="5590" width="150" height="110" as="geometry" />
        </mxCell>
        <mxCell id="lrtOGTi42sTW7biP3XFJ-256" value="" style="endArrow=classic;html=1;rounded=0;exitX=1;exitY=0.25;exitDx=0;exitDy=0;entryX=0;entryY=0.5;entryDx=0;entryDy=0;entryPerimeter=0;" edge="1" parent="1" source="lrtOGTi42sTW7biP3XFJ-250" target="lrtOGTi42sTW7biP3XFJ-244">
          <mxGeometry width="50" height="50" relative="1" as="geometry">
            <mxPoint x="600" y="5470" as="sourcePoint" />
            <mxPoint x="650" y="5420" as="targetPoint" />
          </mxGeometry>
        </mxCell>
        <mxCell id="lrtOGTi42sTW7biP3XFJ-257" value="" style="endArrow=classic;html=1;rounded=0;entryX=-0.003;entryY=0.533;entryDx=0;entryDy=0;entryPerimeter=0;exitX=1;exitY=0.75;exitDx=0;exitDy=0;" edge="1" parent="1" source="lrtOGTi42sTW7biP3XFJ-250" target="lrtOGTi42sTW7biP3XFJ-253">
          <mxGeometry width="50" height="50" relative="1" as="geometry">
            <mxPoint x="600" y="5470" as="sourcePoint" />
            <mxPoint x="650" y="5420" as="targetPoint" />
          </mxGeometry>
        </mxCell>
        <mxCell id="lrtOGTi42sTW7biP3XFJ-258" value="Реплика 3 (вторичный сервер) сегмента 1" style="rounded=1;whiteSpace=wrap;html=1;" vertex="1" parent="1">
          <mxGeometry x="800" y="5320" width="130" height="110" as="geometry" />
        </mxCell>
        <mxCell id="lrtOGTi42sTW7biP3XFJ-259" value="Реплика 3 (вторичный сервер) сегмента 2" style="rounded=1;whiteSpace=wrap;html=1;" vertex="1" parent="1">
          <mxGeometry x="810" y="5590" width="120" height="110" as="geometry" />
        </mxCell>
        <mxCell id="lrtOGTi42sTW7biP3XFJ-260" value="" style="endArrow=classic;html=1;rounded=0;exitX=0.25;exitY=1;exitDx=0;exitDy=0;entryX=0.5;entryY=0;entryDx=0;entryDy=0;" edge="1" parent="1" source="lrtOGTi42sTW7biP3XFJ-247" target="lrtOGTi42sTW7biP3XFJ-248">
          <mxGeometry width="50" height="50" relative="1" as="geometry">
            <mxPoint x="600" y="5470" as="sourcePoint" />
            <mxPoint x="650" y="5420" as="targetPoint" />
          </mxGeometry>
        </mxCell>
        <mxCell id="lrtOGTi42sTW7biP3XFJ-261" value="" style="endArrow=classic;html=1;rounded=0;entryX=0.5;entryY=0;entryDx=0;entryDy=0;" edge="1" parent="1" source="lrtOGTi42sTW7biP3XFJ-254" target="lrtOGTi42sTW7biP3XFJ-255">
          <mxGeometry width="50" height="50" relative="1" as="geometry">
            <mxPoint x="755" y="5310" as="sourcePoint" />
            <mxPoint x="730" y="5330" as="targetPoint" />
            <Array as="points" />
          </mxGeometry>
        </mxCell>
        <mxCell id="lrtOGTi42sTW7biP3XFJ-262" value="" style="endArrow=classic;html=1;rounded=0;entryX=0.5;entryY=0;entryDx=0;entryDy=0;exitX=0.75;exitY=1;exitDx=0;exitDy=0;" edge="1" parent="1" source="lrtOGTi42sTW7biP3XFJ-254" target="lrtOGTi42sTW7biP3XFJ-259">
          <mxGeometry width="50" height="50" relative="1" as="geometry">
            <mxPoint x="600" y="5470" as="sourcePoint" />
            <mxPoint x="650" y="5420" as="targetPoint" />
          </mxGeometry>
        </mxCell>
        <mxCell id="lrtOGTi42sTW7biP3XFJ-263" value="" style="endArrow=classic;html=1;rounded=0;exitX=0.636;exitY=1;exitDx=0;exitDy=0;exitPerimeter=0;entryX=0.5;entryY=0;entryDx=0;entryDy=0;" edge="1" parent="1" source="lrtOGTi42sTW7biP3XFJ-247" target="lrtOGTi42sTW7biP3XFJ-258">
          <mxGeometry width="50" height="50" relative="1" as="geometry">
            <mxPoint x="600" y="5470" as="sourcePoint" />
            <mxPoint x="650" y="5420" as="targetPoint" />
          </mxGeometry>
        </mxCell>
        <mxCell id="lrtOGTi42sTW7biP3XFJ-264" value="Конфигурационный сервер" style="rounded=1;whiteSpace=wrap;html=1;" vertex="1" parent="1">
          <mxGeometry x="430" y="5470" width="120" height="60" as="geometry" />
        </mxCell>
        <mxCell id="lrtOGTi42sTW7biP3XFJ-265" value="" style="endArrow=classic;html=1;rounded=0;exitX=0.5;exitY=1;exitDx=0;exitDy=0;entryX=0.5;entryY=0;entryDx=0;entryDy=0;" edge="1" parent="1" source="lrtOGTi42sTW7biP3XFJ-250" target="lrtOGTi42sTW7biP3XFJ-264">
          <mxGeometry width="50" height="50" relative="1" as="geometry">
            <mxPoint x="600" y="5590" as="sourcePoint" />
            <mxPoint x="650" y="5540" as="targetPoint" />
          </mxGeometry>
        </mxCell>
        <mxCell id="lrtOGTi42sTW7biP3XFJ-266" value="" style="endArrow=classic;html=1;rounded=0;exitX=-0.003;exitY=0.608;exitDx=0;exitDy=0;exitPerimeter=0;entryX=1;entryY=0;entryDx=0;entryDy=0;" edge="1" parent="1" source="lrtOGTi42sTW7biP3XFJ-244" target="lrtOGTi42sTW7biP3XFJ-264">
          <mxGeometry width="50" height="50" relative="1" as="geometry">
            <mxPoint x="600" y="5590" as="sourcePoint" />
            <mxPoint x="650" y="5540" as="targetPoint" />
          </mxGeometry>
        </mxCell>
        <mxCell id="lrtOGTi42sTW7biP3XFJ-267" value="" style="endArrow=classic;html=1;rounded=0;exitX=0;exitY=0.654;exitDx=0;exitDy=0;exitPerimeter=0;entryX=1;entryY=1;entryDx=0;entryDy=0;" edge="1" parent="1" source="lrtOGTi42sTW7biP3XFJ-253" target="lrtOGTi42sTW7biP3XFJ-264">
          <mxGeometry width="50" height="50" relative="1" as="geometry">
            <mxPoint x="600" y="5590" as="sourcePoint" />
            <mxPoint x="650" y="5540" as="targetPoint" />
          </mxGeometry>
        </mxCell>
        <mxCell id="lrtOGTi42sTW7biP3XFJ-268" value="&lt;font style=&quot;font-size: 12px;&quot; face=&quot;Helvetica&quot;&gt;&lt;b&gt;&lt;font style=&quot;&quot;&gt;4. Пункт 2 +&amp;nbsp;&lt;/font&gt;&lt;span style=&quot;color: rgba(0, 0, 0, 0.85); text-align: left; white-space-collapse: preserve-breaks; background-color: rgb(255, 255, 255);&quot;&gt;кеширования запросов приложения к MongoDB&lt;/span&gt;&lt;/b&gt;&lt;/font&gt;" style="text;html=1;align=center;verticalAlign=middle;whiteSpace=wrap;rounded=0;" vertex="1" parent="1">
          <mxGeometry x="130" y="5770" width="400" height="40" as="geometry" />
        </mxCell>
        <mxCell id="lrtOGTi42sTW7biP3XFJ-269" value="MongoDBases Сегмент 1&lt;div&gt;&lt;br&gt;&lt;/div&gt;&lt;div&gt;&lt;br&gt;&lt;/div&gt;&lt;div&gt;&lt;br&gt;&lt;/div&gt;&lt;div&gt;&lt;br&gt;&lt;/div&gt;&lt;div&gt;&lt;br&gt;&lt;/div&gt;&lt;div&gt;&lt;br&gt;&lt;/div&gt;&lt;div&gt;&lt;br&gt;&lt;/div&gt;&lt;div&gt;&lt;br&gt;&lt;/div&gt;&lt;div&gt;&lt;br&gt;&lt;/div&gt;&lt;div&gt;&lt;br&gt;&lt;/div&gt;&lt;div&gt;&lt;br&gt;&lt;/div&gt;&lt;div&gt;&lt;br&gt;&lt;/div&gt;&lt;div&gt;&lt;br&gt;&lt;/div&gt;&lt;div&gt;&lt;br&gt;&lt;/div&gt;&lt;div&gt;&lt;br&gt;&lt;/div&gt;&lt;div&gt;&lt;br&gt;&lt;/div&gt;" style="shape=cylinder3;whiteSpace=wrap;html=1;boundedLbl=1;backgroundOutline=1;size=15;" vertex="1" parent="1">
          <mxGeometry x="890" y="5820" width="300" height="240" as="geometry" />
        </mxCell>
        <mxCell id="lrtOGTi42sTW7biP3XFJ-270" value="pymongo-api" style="rounded=1;whiteSpace=wrap;html=1;" vertex="1" parent="1">
          <mxGeometry x="70" y="5980" width="120" height="60" as="geometry" />
        </mxCell>
        <mxCell id="lrtOGTi42sTW7biP3XFJ-271" style="edgeStyle=orthogonalEdgeStyle;rounded=0;orthogonalLoop=1;jettySize=auto;html=1;exitX=1;exitY=0.5;exitDx=0;exitDy=0;entryX=0;entryY=0.5;entryDx=0;entryDy=0;entryPerimeter=0;" edge="1" parent="1" source="lrtOGTi42sTW7biP3XFJ-270">
          <mxGeometry relative="1" as="geometry">
            <mxPoint x="270" y="6010" as="targetPoint" />
          </mxGeometry>
        </mxCell>
        <mxCell id="lrtOGTi42sTW7biP3XFJ-272" value="Первичный сервер сегмента 1 (реплика 1)&amp;nbsp;" style="rounded=1;whiteSpace=wrap;html=1;" vertex="1" parent="1">
          <mxGeometry x="940" y="5860" width="220" height="60" as="geometry" />
        </mxCell>
        <mxCell id="lrtOGTi42sTW7biP3XFJ-273" value="Реплика 2 (вторичный сервер) сегмента 1" style="rounded=1;whiteSpace=wrap;html=1;" vertex="1" parent="1">
          <mxGeometry x="900" y="5940" width="140" height="110" as="geometry" />
        </mxCell>
        <mxCell id="lrtOGTi42sTW7biP3XFJ-274" value="Драйвер моста" style="rounded=1;whiteSpace=wrap;html=1;" vertex="1" parent="1">
          <mxGeometry x="270" y="5980" width="120" height="60" as="geometry" />
        </mxCell>
        <mxCell id="lrtOGTi42sTW7biP3XFJ-275" value="Роутер (mongos_router)" style="rounded=1;whiteSpace=wrap;html=1;" vertex="1" parent="1">
          <mxGeometry x="430" y="5980" width="120" height="60" as="geometry" />
        </mxCell>
        <mxCell id="lrtOGTi42sTW7biP3XFJ-276" value="" style="endArrow=classic;html=1;rounded=0;exitX=1;exitY=0.5;exitDx=0;exitDy=0;entryX=0;entryY=0.5;entryDx=0;entryDy=0;" edge="1" parent="1" source="lrtOGTi42sTW7biP3XFJ-274" target="lrtOGTi42sTW7biP3XFJ-275">
          <mxGeometry width="50" height="50" relative="1" as="geometry">
            <mxPoint x="600" y="5970" as="sourcePoint" />
            <mxPoint x="650" y="5920" as="targetPoint" />
          </mxGeometry>
        </mxCell>
        <mxCell id="lrtOGTi42sTW7biP3XFJ-277" value="" style="endArrow=classic;html=1;rounded=0;entryX=1;entryY=0.75;entryDx=0;entryDy=0;exitX=0;exitY=0.75;exitDx=0;exitDy=0;" edge="1" parent="1" source="lrtOGTi42sTW7biP3XFJ-275" target="lrtOGTi42sTW7biP3XFJ-274">
          <mxGeometry width="50" height="50" relative="1" as="geometry">
            <mxPoint x="600" y="5970" as="sourcePoint" />
            <mxPoint x="650" y="5920" as="targetPoint" />
          </mxGeometry>
        </mxCell>
        <mxCell id="lrtOGTi42sTW7biP3XFJ-278" value="MongoDBases Сегмент 2&lt;div&gt;&lt;br&gt;&lt;/div&gt;&lt;div&gt;&lt;br&gt;&lt;/div&gt;&lt;div&gt;&lt;br&gt;&lt;/div&gt;&lt;div&gt;&lt;br&gt;&lt;/div&gt;&lt;div&gt;&lt;br&gt;&lt;/div&gt;&lt;div&gt;&lt;br&gt;&lt;/div&gt;&lt;div&gt;&lt;br&gt;&lt;/div&gt;&lt;div&gt;&lt;br&gt;&lt;/div&gt;&lt;div&gt;&lt;br&gt;&lt;/div&gt;&lt;div&gt;&lt;br&gt;&lt;/div&gt;&lt;div&gt;&lt;br&gt;&lt;/div&gt;&lt;div&gt;&lt;br&gt;&lt;/div&gt;&lt;div&gt;&lt;br&gt;&lt;/div&gt;&lt;div&gt;&lt;br&gt;&lt;/div&gt;&lt;div&gt;&lt;br&gt;&lt;/div&gt;&lt;div&gt;&lt;br&gt;&lt;/div&gt;" style="shape=cylinder3;whiteSpace=wrap;html=1;boundedLbl=1;backgroundOutline=1;size=15;" vertex="1" parent="1">
          <mxGeometry x="890" y="6090" width="300" height="240" as="geometry" />
        </mxCell>
        <mxCell id="lrtOGTi42sTW7biP3XFJ-279" value="Первичный сервер сегмента 2 (реплика 1)&amp;nbsp;" style="rounded=1;whiteSpace=wrap;html=1;" vertex="1" parent="1">
          <mxGeometry x="940" y="6130" width="220" height="60" as="geometry" />
        </mxCell>
        <mxCell id="lrtOGTi42sTW7biP3XFJ-280" value="Реплика 2 (вторичный сервер) сегмента 2" style="rounded=1;whiteSpace=wrap;html=1;" vertex="1" parent="1">
          <mxGeometry x="900" y="6210" width="150" height="110" as="geometry" />
        </mxCell>
        <mxCell id="lrtOGTi42sTW7biP3XFJ-281" value="" style="endArrow=classic;html=1;rounded=0;exitX=1;exitY=0.25;exitDx=0;exitDy=0;entryX=0;entryY=0.5;entryDx=0;entryDy=0;entryPerimeter=0;" edge="1" parent="1" source="lrtOGTi42sTW7biP3XFJ-275" target="lrtOGTi42sTW7biP3XFJ-293">
          <mxGeometry width="50" height="50" relative="1" as="geometry">
            <mxPoint x="600" y="6090" as="sourcePoint" />
            <mxPoint x="670" y="5950" as="targetPoint" />
          </mxGeometry>
        </mxCell>
        <mxCell id="lrtOGTi42sTW7biP3XFJ-282" value="" style="endArrow=classic;html=1;rounded=0;exitX=1;exitY=0.75;exitDx=0;exitDy=0;entryX=0.007;entryY=0.567;entryDx=0;entryDy=0;entryPerimeter=0;" edge="1" parent="1" source="lrtOGTi42sTW7biP3XFJ-275" target="lrtOGTi42sTW7biP3XFJ-294">
          <mxGeometry width="50" height="50" relative="1" as="geometry">
            <mxPoint x="600" y="6090" as="sourcePoint" />
            <mxPoint x="690" y="6170" as="targetPoint" />
          </mxGeometry>
        </mxCell>
        <mxCell id="lrtOGTi42sTW7biP3XFJ-283" value="Реплика 3 (вторичный сервер) сегмента 1" style="rounded=1;whiteSpace=wrap;html=1;" vertex="1" parent="1">
          <mxGeometry x="1050" y="5940" width="130" height="110" as="geometry" />
        </mxCell>
        <mxCell id="lrtOGTi42sTW7biP3XFJ-284" value="Реплика 3 (вторичный сервер) сегмента 2" style="rounded=1;whiteSpace=wrap;html=1;" vertex="1" parent="1">
          <mxGeometry x="1060" y="6210" width="120" height="110" as="geometry" />
        </mxCell>
        <mxCell id="lrtOGTi42sTW7biP3XFJ-285" value="" style="endArrow=classic;html=1;rounded=0;exitX=0.25;exitY=1;exitDx=0;exitDy=0;entryX=0.5;entryY=0;entryDx=0;entryDy=0;" edge="1" parent="1" source="lrtOGTi42sTW7biP3XFJ-272" target="lrtOGTi42sTW7biP3XFJ-273">
          <mxGeometry width="50" height="50" relative="1" as="geometry">
            <mxPoint x="850" y="6090" as="sourcePoint" />
            <mxPoint x="900" y="6040" as="targetPoint" />
          </mxGeometry>
        </mxCell>
        <mxCell id="lrtOGTi42sTW7biP3XFJ-286" value="" style="endArrow=classic;html=1;rounded=0;entryX=0.5;entryY=0;entryDx=0;entryDy=0;" edge="1" parent="1" source="lrtOGTi42sTW7biP3XFJ-279" target="lrtOGTi42sTW7biP3XFJ-280">
          <mxGeometry width="50" height="50" relative="1" as="geometry">
            <mxPoint x="1005" y="5930" as="sourcePoint" />
            <mxPoint x="980" y="5950" as="targetPoint" />
            <Array as="points" />
          </mxGeometry>
        </mxCell>
        <mxCell id="lrtOGTi42sTW7biP3XFJ-287" value="" style="endArrow=classic;html=1;rounded=0;entryX=0.5;entryY=0;entryDx=0;entryDy=0;exitX=0.75;exitY=1;exitDx=0;exitDy=0;" edge="1" parent="1" source="lrtOGTi42sTW7biP3XFJ-279" target="lrtOGTi42sTW7biP3XFJ-284">
          <mxGeometry width="50" height="50" relative="1" as="geometry">
            <mxPoint x="850" y="6090" as="sourcePoint" />
            <mxPoint x="900" y="6040" as="targetPoint" />
          </mxGeometry>
        </mxCell>
        <mxCell id="lrtOGTi42sTW7biP3XFJ-288" value="" style="endArrow=classic;html=1;rounded=0;exitX=0.636;exitY=1;exitDx=0;exitDy=0;exitPerimeter=0;entryX=0.5;entryY=0;entryDx=0;entryDy=0;" edge="1" parent="1" source="lrtOGTi42sTW7biP3XFJ-272" target="lrtOGTi42sTW7biP3XFJ-283">
          <mxGeometry width="50" height="50" relative="1" as="geometry">
            <mxPoint x="850" y="6090" as="sourcePoint" />
            <mxPoint x="900" y="6040" as="targetPoint" />
          </mxGeometry>
        </mxCell>
        <mxCell id="lrtOGTi42sTW7biP3XFJ-289" value="Конфигурационный сервер" style="rounded=1;whiteSpace=wrap;html=1;" vertex="1" parent="1">
          <mxGeometry x="430" y="6260" width="120" height="60" as="geometry" />
        </mxCell>
        <mxCell id="lrtOGTi42sTW7biP3XFJ-290" value="" style="endArrow=classic;html=1;rounded=0;exitX=0.5;exitY=1;exitDx=0;exitDy=0;entryX=0.5;entryY=0;entryDx=0;entryDy=0;" edge="1" parent="1" source="lrtOGTi42sTW7biP3XFJ-275" target="lrtOGTi42sTW7biP3XFJ-289">
          <mxGeometry width="50" height="50" relative="1" as="geometry">
            <mxPoint x="600" y="6210" as="sourcePoint" />
            <mxPoint x="650" y="6160" as="targetPoint" />
          </mxGeometry>
        </mxCell>
        <mxCell id="lrtOGTi42sTW7biP3XFJ-291" value="" style="endArrow=classic;html=1;rounded=0;exitX=-0.003;exitY=0.608;exitDx=0;exitDy=0;exitPerimeter=0;entryX=1;entryY=0;entryDx=0;entryDy=0;" edge="1" parent="1" source="lrtOGTi42sTW7biP3XFJ-269" target="lrtOGTi42sTW7biP3XFJ-289">
          <mxGeometry width="50" height="50" relative="1" as="geometry">
            <mxPoint x="600" y="6210" as="sourcePoint" />
            <mxPoint x="650" y="6160" as="targetPoint" />
            <Array as="points">
              <mxPoint x="840" y="6270" />
            </Array>
          </mxGeometry>
        </mxCell>
        <mxCell id="lrtOGTi42sTW7biP3XFJ-292" value="" style="endArrow=classic;html=1;rounded=0;exitX=0;exitY=0.654;exitDx=0;exitDy=0;exitPerimeter=0;entryX=1;entryY=1;entryDx=0;entryDy=0;" edge="1" parent="1" source="lrtOGTi42sTW7biP3XFJ-278" target="lrtOGTi42sTW7biP3XFJ-289">
          <mxGeometry width="50" height="50" relative="1" as="geometry">
            <mxPoint x="600" y="6210" as="sourcePoint" />
            <mxPoint x="650" y="6160" as="targetPoint" />
            <Array as="points">
              <mxPoint x="820" y="6310" />
            </Array>
          </mxGeometry>
        </mxCell>
        <mxCell id="lrtOGTi42sTW7biP3XFJ-293" value="Redis 1&lt;div&gt;&lt;br&gt;&lt;/div&gt;&lt;div&gt;&lt;br&gt;&lt;/div&gt;&lt;div&gt;&lt;br&gt;&lt;/div&gt;&lt;div&gt;&lt;br&gt;&lt;/div&gt;&lt;div&gt;&lt;br&gt;&lt;/div&gt;&lt;div&gt;&lt;br&gt;&lt;/div&gt;&lt;div&gt;&lt;br&gt;&lt;/div&gt;&lt;div&gt;&lt;br&gt;&lt;/div&gt;&lt;div&gt;&lt;br&gt;&lt;/div&gt;&lt;div&gt;&lt;br&gt;&lt;/div&gt;&lt;div&gt;&lt;br&gt;&lt;/div&gt;&lt;div&gt;&lt;br&gt;&lt;/div&gt;&lt;div&gt;&lt;br&gt;&lt;/div&gt;&lt;div&gt;&lt;br&gt;&lt;/div&gt;&lt;div&gt;&lt;br&gt;&lt;/div&gt;" style="shape=cylinder3;whiteSpace=wrap;html=1;boundedLbl=1;backgroundOutline=1;size=15;" vertex="1" parent="1">
          <mxGeometry x="640" y="5830" width="210" height="210" as="geometry" />
        </mxCell>
        <mxCell id="lrtOGTi42sTW7biP3XFJ-294" value="Redis 2&lt;div&gt;&lt;br&gt;&lt;/div&gt;&lt;div&gt;&lt;br&gt;&lt;/div&gt;&lt;div&gt;&lt;br&gt;&lt;/div&gt;&lt;div&gt;&lt;br&gt;&lt;/div&gt;&lt;div&gt;&lt;br&gt;&lt;/div&gt;&lt;div&gt;&lt;br&gt;&lt;/div&gt;&lt;div&gt;&lt;br&gt;&lt;/div&gt;&lt;div&gt;&lt;br&gt;&lt;/div&gt;&lt;div&gt;&lt;br&gt;&lt;/div&gt;&lt;div&gt;&lt;br&gt;&lt;/div&gt;&lt;div&gt;&lt;br&gt;&lt;/div&gt;&lt;div&gt;&lt;br&gt;&lt;/div&gt;&lt;div&gt;&lt;br&gt;&lt;/div&gt;" style="shape=cylinder3;whiteSpace=wrap;html=1;boundedLbl=1;backgroundOutline=1;size=15;" vertex="1" parent="1">
          <mxGeometry x="640" y="6050" width="200" height="200" as="geometry" />
        </mxCell>
        <mxCell id="lrtOGTi42sTW7biP3XFJ-295" value="" style="endArrow=classic;startArrow=classic;html=1;rounded=0;entryX=0;entryY=0.388;entryDx=0;entryDy=0;entryPerimeter=0;exitX=1;exitY=0.5;exitDx=0;exitDy=0;exitPerimeter=0;" edge="1" parent="1" source="lrtOGTi42sTW7biP3XFJ-293" target="lrtOGTi42sTW7biP3XFJ-269">
          <mxGeometry width="50" height="50" relative="1" as="geometry">
            <mxPoint x="600" y="6080" as="sourcePoint" />
            <mxPoint x="650" y="6030" as="targetPoint" />
          </mxGeometry>
        </mxCell>
        <mxCell id="lrtOGTi42sTW7biP3XFJ-296" value="" style="endArrow=classic;startArrow=classic;html=1;rounded=0;entryX=0;entryY=0.5;entryDx=0;entryDy=0;entryPerimeter=0;exitX=1;exitY=0.5;exitDx=0;exitDy=0;exitPerimeter=0;" edge="1" parent="1" source="lrtOGTi42sTW7biP3XFJ-294" target="lrtOGTi42sTW7biP3XFJ-278">
          <mxGeometry width="50" height="50" relative="1" as="geometry">
            <mxPoint x="600" y="6080" as="sourcePoint" />
            <mxPoint x="650" y="6030" as="targetPoint" />
          </mxGeometry>
        </mxCell>
        <mxCell id="lrtOGTi42sTW7biP3XFJ-297" value="Мастер&amp;nbsp;" style="rounded=1;whiteSpace=wrap;html=1;" vertex="1" parent="1">
          <mxGeometry x="670" y="5880" width="140" height="25" as="geometry" />
        </mxCell>
        <mxCell id="lrtOGTi42sTW7biP3XFJ-298" value="Реплика 1" style="rounded=1;whiteSpace=wrap;html=1;" vertex="1" parent="1">
          <mxGeometry x="650" y="5925" width="80" height="85" as="geometry" />
        </mxCell>
        <mxCell id="lrtOGTi42sTW7biP3XFJ-299" value="Реплика 2" style="rounded=1;whiteSpace=wrap;html=1;" vertex="1" parent="1">
          <mxGeometry x="760" y="5925" width="80" height="85" as="geometry" />
        </mxCell>
        <mxCell id="lrtOGTi42sTW7biP3XFJ-300" value="" style="endArrow=classic;html=1;rounded=0;exitX=0.25;exitY=1;exitDx=0;exitDy=0;entryX=0.5;entryY=0;entryDx=0;entryDy=0;" edge="1" parent="1" source="lrtOGTi42sTW7biP3XFJ-297" target="lrtOGTi42sTW7biP3XFJ-298">
          <mxGeometry width="50" height="50" relative="1" as="geometry">
            <mxPoint x="580" y="6075" as="sourcePoint" />
            <mxPoint x="630" y="6025" as="targetPoint" />
          </mxGeometry>
        </mxCell>
        <mxCell id="lrtOGTi42sTW7biP3XFJ-301" value="" style="endArrow=classic;html=1;rounded=0;exitX=0.636;exitY=1;exitDx=0;exitDy=0;exitPerimeter=0;entryX=0.5;entryY=0;entryDx=0;entryDy=0;" edge="1" parent="1" source="lrtOGTi42sTW7biP3XFJ-297" target="lrtOGTi42sTW7biP3XFJ-299">
          <mxGeometry width="50" height="50" relative="1" as="geometry">
            <mxPoint x="580" y="6075" as="sourcePoint" />
            <mxPoint x="630" y="6025" as="targetPoint" />
          </mxGeometry>
        </mxCell>
        <mxCell id="lrtOGTi42sTW7biP3XFJ-302" value="Мастер&amp;nbsp;" style="rounded=1;whiteSpace=wrap;html=1;" vertex="1" parent="1">
          <mxGeometry x="670" y="6095" width="140" height="25" as="geometry" />
        </mxCell>
        <mxCell id="lrtOGTi42sTW7biP3XFJ-303" value="Реплика 1" style="rounded=1;whiteSpace=wrap;html=1;" vertex="1" parent="1">
          <mxGeometry x="650" y="6140" width="80" height="85" as="geometry" />
        </mxCell>
        <mxCell id="lrtOGTi42sTW7biP3XFJ-304" value="Реплика 2" style="rounded=1;whiteSpace=wrap;html=1;" vertex="1" parent="1">
          <mxGeometry x="760" y="6140" width="80" height="85" as="geometry" />
        </mxCell>
        <mxCell id="lrtOGTi42sTW7biP3XFJ-305" value="" style="endArrow=classic;html=1;rounded=0;exitX=0.25;exitY=1;exitDx=0;exitDy=0;entryX=0.5;entryY=0;entryDx=0;entryDy=0;" edge="1" parent="1" source="lrtOGTi42sTW7biP3XFJ-302" target="lrtOGTi42sTW7biP3XFJ-303">
          <mxGeometry width="50" height="50" relative="1" as="geometry">
            <mxPoint x="580" y="6290" as="sourcePoint" />
            <mxPoint x="630" y="6240" as="targetPoint" />
          </mxGeometry>
        </mxCell>
        <mxCell id="lrtOGTi42sTW7biP3XFJ-306" value="" style="endArrow=classic;html=1;rounded=0;exitX=0.636;exitY=1;exitDx=0;exitDy=0;exitPerimeter=0;entryX=0.5;entryY=0;entryDx=0;entryDy=0;" edge="1" parent="1" source="lrtOGTi42sTW7biP3XFJ-302" target="lrtOGTi42sTW7biP3XFJ-304">
          <mxGeometry width="50" height="50" relative="1" as="geometry">
            <mxPoint x="580" y="6290" as="sourcePoint" />
            <mxPoint x="630" y="6240" as="targetPoint" />
          </mxGeometry>
        </mxCell>
        <mxCell id="lrtOGTi42sTW7biP3XFJ-307" value="&lt;font style=&quot;font-size: 12px;&quot; face=&quot;Helvetica&quot;&gt;&lt;b&gt;&lt;font style=&quot;&quot;&gt;5. S&lt;/font&gt;&lt;/b&gt;&lt;/font&gt;&lt;span style=&quot;text-align: left;&quot;&gt;&lt;font face=&quot;Helvetica&quot; style=&quot;font-size: 12px;&quot;&gt;&lt;b&gt;ervice discovery и балансировка с api gateway&lt;/b&gt;&lt;/font&gt;&lt;/span&gt;" style="text;html=1;align=center;verticalAlign=middle;whiteSpace=wrap;rounded=0;" vertex="1" parent="1">
          <mxGeometry x="110" y="6358" width="400" height="40" as="geometry" />
        </mxCell>
        <mxCell id="lrtOGTi42sTW7biP3XFJ-308" value="Actor" style="shape=umlActor;verticalLabelPosition=bottom;verticalAlign=top;html=1;outlineConnect=0;" vertex="1" parent="1">
          <mxGeometry x="120" y="6565" width="30" height="60" as="geometry" />
        </mxCell>
        <mxCell id="lrtOGTi42sTW7biP3XFJ-309" value="" style="endArrow=classic;html=1;rounded=0;" edge="1" parent="1" source="lrtOGTi42sTW7biP3XFJ-308">
          <mxGeometry width="50" height="50" relative="1" as="geometry">
            <mxPoint x="610" y="6575" as="sourcePoint" />
            <mxPoint x="300" y="6595" as="targetPoint" />
          </mxGeometry>
        </mxCell>
        <mxCell id="lrtOGTi42sTW7biP3XFJ-310" value="APISIX Gateway" style="rounded=1;whiteSpace=wrap;html=1;" vertex="1" parent="1">
          <mxGeometry x="300" y="6525" width="210" height="130" as="geometry" />
        </mxCell>
        <mxCell id="lrtOGTi42sTW7biP3XFJ-311" value="Consul_kv" style="rounded=1;whiteSpace=wrap;html=1;" vertex="1" parent="1">
          <mxGeometry x="380" y="6620" width="120" height="60" as="geometry" />
        </mxCell>
        <mxCell id="lrtOGTi42sTW7biP3XFJ-312" value="" style="endArrow=classic;html=1;rounded=0;exitX=0.5;exitY=1;exitDx=0;exitDy=0;entryX=0.5;entryY=0;entryDx=0;entryDy=0;" edge="1" parent="1" source="lrtOGTi42sTW7biP3XFJ-311" target="lrtOGTi42sTW7biP3XFJ-313">
          <mxGeometry width="50" height="50" relative="1" as="geometry">
            <mxPoint x="610" y="6575" as="sourcePoint" />
            <mxPoint x="650" y="6595" as="targetPoint" />
          </mxGeometry>
        </mxCell>
        <mxCell id="lrtOGTi42sTW7biP3XFJ-313" value="Consul" style="rounded=1;whiteSpace=wrap;html=1;" vertex="1" parent="1">
          <mxGeometry x="380" y="6705" width="120" height="60" as="geometry" />
        </mxCell>
        <mxCell id="lrtOGTi42sTW7biP3XFJ-314" value="Инстанс 1 (схема из пункта 3)" style="rounded=1;whiteSpace=wrap;html=1;fillColor=#E7FF51;" vertex="1" parent="1">
          <mxGeometry x="790" y="6500" width="260" height="60" as="geometry" />
        </mxCell>
        <mxCell id="lrtOGTi42sTW7biP3XFJ-315" value="Инстанс 2 (схема из пункта 3)" style="rounded=1;whiteSpace=wrap;html=1;fillColor=#66FF66;" vertex="1" parent="1">
          <mxGeometry x="790" y="6590" width="260" height="60" as="geometry" />
        </mxCell>
        <mxCell id="lrtOGTi42sTW7biP3XFJ-316" value="Инстанс 3 (схема из пункта 3)" style="rounded=1;whiteSpace=wrap;html=1;fillColor=#3399FF;" vertex="1" parent="1">
          <mxGeometry x="790" y="6675" width="260" height="60" as="geometry" />
        </mxCell>
        <mxCell id="lrtOGTi42sTW7biP3XFJ-317" value="" style="endArrow=classic;html=1;rounded=0;entryX=0;entryY=0.5;entryDx=0;entryDy=0;" edge="1" parent="1" target="lrtOGTi42sTW7biP3XFJ-314">
          <mxGeometry width="50" height="50" relative="1" as="geometry">
            <mxPoint x="760" y="6530" as="sourcePoint" />
            <mxPoint x="860" y="6530" as="targetPoint" />
          </mxGeometry>
        </mxCell>
        <mxCell id="lrtOGTi42sTW7biP3XFJ-318" value="" style="endArrow=classic;html=1;rounded=0;entryX=0;entryY=0.5;entryDx=0;entryDy=0;exitX=1;exitY=0.5;exitDx=0;exitDy=0;" edge="1" parent="1" target="lrtOGTi42sTW7biP3XFJ-315" source="lrtOGTi42sTW7biP3XFJ-404">
          <mxGeometry width="50" height="50" relative="1" as="geometry">
            <mxPoint x="760" y="6620" as="sourcePoint" />
            <mxPoint x="860" y="6530" as="targetPoint" />
          </mxGeometry>
        </mxCell>
        <mxCell id="lrtOGTi42sTW7biP3XFJ-319" value="" style="endArrow=classic;html=1;rounded=0;entryX=0;entryY=0.5;entryDx=0;entryDy=0;" edge="1" parent="1" target="lrtOGTi42sTW7biP3XFJ-316">
          <mxGeometry width="50" height="50" relative="1" as="geometry">
            <mxPoint x="760" y="6710" as="sourcePoint" />
            <mxPoint x="860" y="6530" as="targetPoint" />
          </mxGeometry>
        </mxCell>
        <mxCell id="lrtOGTi42sTW7biP3XFJ-320" value="" style="endArrow=classic;html=1;rounded=0;entryX=0.5;entryY=1;entryDx=0;entryDy=0;exitX=1;exitY=0.5;exitDx=0;exitDy=0;" edge="1" parent="1" target="lrtOGTi42sTW7biP3XFJ-404" source="lrtOGTi42sTW7biP3XFJ-314">
          <mxGeometry width="50" height="50" relative="1" as="geometry">
            <mxPoint x="1100" y="6520" as="sourcePoint" />
            <mxPoint x="650" y="6520" as="targetPoint" />
            <Array as="points">
              <mxPoint x="1100" y="6530" />
              <mxPoint x="1100" y="6760" />
              <mxPoint x="890" y="6760" />
              <mxPoint x="660" y="6760" />
            </Array>
          </mxGeometry>
        </mxCell>
        <mxCell id="lrtOGTi42sTW7biP3XFJ-321" value="&lt;font style=&quot;font-size: 12px;&quot; face=&quot;Helvetica&quot;&gt;&lt;b&gt;&lt;font style=&quot;&quot;&gt;6. Content Delivery Network&lt;/font&gt;&lt;/b&gt;&lt;/font&gt;" style="text;html=1;align=center;verticalAlign=middle;whiteSpace=wrap;rounded=0;" vertex="1" parent="1">
          <mxGeometry x="80" y="6810" width="400" height="40" as="geometry" />
        </mxCell>
        <mxCell id="lrtOGTi42sTW7biP3XFJ-322" value="Actor" style="shape=umlActor;verticalLabelPosition=bottom;verticalAlign=top;html=1;outlineConnect=0;" vertex="1" parent="1">
          <mxGeometry x="140" y="6945" width="30" height="60" as="geometry" />
        </mxCell>
        <mxCell id="lrtOGTi42sTW7biP3XFJ-323" value="" style="endArrow=classic;html=1;rounded=0;exitX=1;exitY=0.5;exitDx=0;exitDy=0;" edge="1" parent="1" source="lrtOGTi42sTW7biP3XFJ-374" target="lrtOGTi42sTW7biP3XFJ-324">
          <mxGeometry width="50" height="50" relative="1" as="geometry">
            <mxPoint x="390" y="7095" as="sourcePoint" />
            <mxPoint x="440" y="7030" as="targetPoint" />
          </mxGeometry>
        </mxCell>
        <mxCell id="lrtOGTi42sTW7biP3XFJ-324" value="APISIX Gateway" style="rounded=1;whiteSpace=wrap;html=1;" vertex="1" parent="1">
          <mxGeometry x="165" y="7091" width="210" height="130" as="geometry" />
        </mxCell>
        <mxCell id="lrtOGTi42sTW7biP3XFJ-325" value="Consul_kv" style="rounded=1;whiteSpace=wrap;html=1;" vertex="1" parent="1">
          <mxGeometry x="399" y="7120" width="120" height="60" as="geometry" />
        </mxCell>
        <mxCell id="lrtOGTi42sTW7biP3XFJ-326" value="" style="endArrow=classic;html=1;rounded=0;exitX=0.5;exitY=1;exitDx=0;exitDy=0;entryX=0.5;entryY=0;entryDx=0;entryDy=0;" edge="1" parent="1" source="lrtOGTi42sTW7biP3XFJ-325" target="lrtOGTi42sTW7biP3XFJ-327">
          <mxGeometry width="50" height="50" relative="1" as="geometry">
            <mxPoint x="629" y="7075" as="sourcePoint" />
            <mxPoint x="669" y="7095" as="targetPoint" />
          </mxGeometry>
        </mxCell>
        <mxCell id="lrtOGTi42sTW7biP3XFJ-327" value="Consul" style="rounded=1;whiteSpace=wrap;html=1;" vertex="1" parent="1">
          <mxGeometry x="399" y="7205" width="120" height="60" as="geometry" />
        </mxCell>
        <mxCell id="lrtOGTi42sTW7biP3XFJ-328" value="" style="endArrow=none;html=1;rounded=0;exitX=1;exitY=0.5;exitDx=0;exitDy=0;" edge="1" parent="1" source="lrtOGTi42sTW7biP3XFJ-315">
          <mxGeometry width="50" height="50" relative="1" as="geometry">
            <mxPoint x="810" y="6700" as="sourcePoint" />
            <mxPoint x="1100" y="6620" as="targetPoint" />
          </mxGeometry>
        </mxCell>
        <mxCell id="lrtOGTi42sTW7biP3XFJ-329" value="" style="endArrow=none;html=1;rounded=0;exitX=1;exitY=0.5;exitDx=0;exitDy=0;" edge="1" parent="1">
          <mxGeometry width="50" height="50" relative="1" as="geometry">
            <mxPoint x="1050" y="6700" as="sourcePoint" />
            <mxPoint x="1100" y="6700" as="targetPoint" />
          </mxGeometry>
        </mxCell>
        <mxCell id="lrtOGTi42sTW7biP3XFJ-330" value="" style="endArrow=none;html=1;rounded=0;" edge="1" parent="1">
          <mxGeometry width="50" height="50" relative="1" as="geometry">
            <mxPoint x="760" y="6710" as="sourcePoint" />
            <mxPoint x="760" y="6530" as="targetPoint" />
          </mxGeometry>
        </mxCell>
        <mxCell id="lrtOGTi42sTW7biP3XFJ-332" value="Инстанс 1 (схема из пункта 3)" style="rounded=1;whiteSpace=wrap;html=1;fillColor=#E7FF51;" vertex="1" parent="1">
          <mxGeometry x="840" y="6791" width="260" height="60" as="geometry" />
        </mxCell>
        <mxCell id="lrtOGTi42sTW7biP3XFJ-333" value="Инстанс 2 (схема из пункта 3)" style="rounded=1;whiteSpace=wrap;html=1;fillColor=#66FF66;" vertex="1" parent="1">
          <mxGeometry x="840" y="6881" width="260" height="60" as="geometry" />
        </mxCell>
        <mxCell id="lrtOGTi42sTW7biP3XFJ-334" value="Инстанс 3 (схема из пункта 3)" style="rounded=1;whiteSpace=wrap;html=1;fillColor=#3399FF;" vertex="1" parent="1">
          <mxGeometry x="840" y="6966" width="260" height="60" as="geometry" />
        </mxCell>
        <mxCell id="lrtOGTi42sTW7biP3XFJ-335" value="" style="endArrow=classic;html=1;rounded=0;entryX=0;entryY=0.5;entryDx=0;entryDy=0;" edge="1" parent="1" target="lrtOGTi42sTW7biP3XFJ-332">
          <mxGeometry width="50" height="50" relative="1" as="geometry">
            <mxPoint x="810" y="6821" as="sourcePoint" />
            <mxPoint x="910" y="6821" as="targetPoint" />
          </mxGeometry>
        </mxCell>
        <mxCell id="lrtOGTi42sTW7biP3XFJ-336" value="" style="endArrow=classic;html=1;rounded=0;entryX=0;entryY=0.5;entryDx=0;entryDy=0;" edge="1" parent="1" target="lrtOGTi42sTW7biP3XFJ-333">
          <mxGeometry width="50" height="50" relative="1" as="geometry">
            <mxPoint x="810" y="6911" as="sourcePoint" />
            <mxPoint x="910" y="6821" as="targetPoint" />
          </mxGeometry>
        </mxCell>
        <mxCell id="lrtOGTi42sTW7biP3XFJ-337" value="" style="endArrow=classic;html=1;rounded=0;entryX=0;entryY=0.5;entryDx=0;entryDy=0;" edge="1" parent="1" target="lrtOGTi42sTW7biP3XFJ-334">
          <mxGeometry width="50" height="50" relative="1" as="geometry">
            <mxPoint x="810" y="7001" as="sourcePoint" />
            <mxPoint x="910" y="6821" as="targetPoint" />
          </mxGeometry>
        </mxCell>
        <mxCell id="lrtOGTi42sTW7biP3XFJ-338" value="" style="endArrow=classic;html=1;rounded=0;entryX=0.5;entryY=1;entryDx=0;entryDy=0;" edge="1" parent="1" target="lrtOGTi42sTW7biP3XFJ-365">
          <mxGeometry width="50" height="50" relative="1" as="geometry">
            <mxPoint x="1100" y="6821" as="sourcePoint" />
            <mxPoint x="760" y="7051" as="targetPoint" />
            <Array as="points">
              <mxPoint x="1150" y="6821" />
              <mxPoint x="1150" y="7061" />
              <mxPoint x="635" y="7070" />
            </Array>
          </mxGeometry>
        </mxCell>
        <mxCell id="lrtOGTi42sTW7biP3XFJ-339" value="" style="endArrow=none;html=1;rounded=0;exitX=1;exitY=0.5;exitDx=0;exitDy=0;" edge="1" parent="1" source="lrtOGTi42sTW7biP3XFJ-333">
          <mxGeometry width="50" height="50" relative="1" as="geometry">
            <mxPoint x="860" y="6991" as="sourcePoint" />
            <mxPoint x="1150" y="6911" as="targetPoint" />
          </mxGeometry>
        </mxCell>
        <mxCell id="lrtOGTi42sTW7biP3XFJ-340" value="" style="endArrow=none;html=1;rounded=0;exitX=1;exitY=0.5;exitDx=0;exitDy=0;" edge="1" parent="1">
          <mxGeometry width="50" height="50" relative="1" as="geometry">
            <mxPoint x="1100" y="6991" as="sourcePoint" />
            <mxPoint x="1150" y="6991" as="targetPoint" />
          </mxGeometry>
        </mxCell>
        <mxCell id="lrtOGTi42sTW7biP3XFJ-341" value="" style="endArrow=none;html=1;rounded=0;" edge="1" parent="1">
          <mxGeometry width="50" height="50" relative="1" as="geometry">
            <mxPoint x="810" y="7001" as="sourcePoint" />
            <mxPoint x="810" y="6821" as="targetPoint" />
          </mxGeometry>
        </mxCell>
        <mxCell id="lrtOGTi42sTW7biP3XFJ-342" value="" style="endArrow=none;html=1;rounded=0;exitX=1;exitY=0.5;exitDx=0;exitDy=0;" edge="1" parent="1" source="lrtOGTi42sTW7biP3XFJ-365">
          <mxGeometry width="50" height="50" relative="1" as="geometry">
            <mxPoint x="720" y="6910" as="sourcePoint" />
            <mxPoint x="810" y="6911" as="targetPoint" />
          </mxGeometry>
        </mxCell>
        <mxCell id="lrtOGTi42sTW7biP3XFJ-343" value="Инстанс 1 (схема из пункта 3)" style="rounded=1;whiteSpace=wrap;html=1;fillColor=#E7FF51;" vertex="1" parent="1">
          <mxGeometry x="840" y="7091" width="260" height="60" as="geometry" />
        </mxCell>
        <mxCell id="lrtOGTi42sTW7biP3XFJ-344" value="Инстанс 2 (схема из пункта 3)" style="rounded=1;whiteSpace=wrap;html=1;fillColor=#66FF66;" vertex="1" parent="1">
          <mxGeometry x="840" y="7181" width="260" height="60" as="geometry" />
        </mxCell>
        <mxCell id="lrtOGTi42sTW7biP3XFJ-345" value="Инстанс 3 (схема из пункта 3)" style="rounded=1;whiteSpace=wrap;html=1;fillColor=#3399FF;" vertex="1" parent="1">
          <mxGeometry x="840" y="7266" width="260" height="60" as="geometry" />
        </mxCell>
        <mxCell id="lrtOGTi42sTW7biP3XFJ-346" value="" style="endArrow=classic;html=1;rounded=0;entryX=0;entryY=0.5;entryDx=0;entryDy=0;" edge="1" parent="1" target="lrtOGTi42sTW7biP3XFJ-343">
          <mxGeometry width="50" height="50" relative="1" as="geometry">
            <mxPoint x="810" y="7121" as="sourcePoint" />
            <mxPoint x="910" y="7121" as="targetPoint" />
          </mxGeometry>
        </mxCell>
        <mxCell id="lrtOGTi42sTW7biP3XFJ-347" value="" style="endArrow=classic;html=1;rounded=0;entryX=0;entryY=0.5;entryDx=0;entryDy=0;" edge="1" parent="1" target="lrtOGTi42sTW7biP3XFJ-344">
          <mxGeometry width="50" height="50" relative="1" as="geometry">
            <mxPoint x="810" y="7211" as="sourcePoint" />
            <mxPoint x="910" y="7121" as="targetPoint" />
          </mxGeometry>
        </mxCell>
        <mxCell id="lrtOGTi42sTW7biP3XFJ-348" value="" style="endArrow=classic;html=1;rounded=0;entryX=0;entryY=0.5;entryDx=0;entryDy=0;" edge="1" parent="1" target="lrtOGTi42sTW7biP3XFJ-345">
          <mxGeometry width="50" height="50" relative="1" as="geometry">
            <mxPoint x="810" y="7301" as="sourcePoint" />
            <mxPoint x="910" y="7121" as="targetPoint" />
          </mxGeometry>
        </mxCell>
        <mxCell id="lrtOGTi42sTW7biP3XFJ-349" value="" style="endArrow=classic;html=1;rounded=0;entryX=0.5;entryY=1;entryDx=0;entryDy=0;" edge="1" parent="1" target="lrtOGTi42sTW7biP3XFJ-366">
          <mxGeometry width="50" height="50" relative="1" as="geometry">
            <mxPoint x="1100" y="7121" as="sourcePoint" />
            <mxPoint x="550" y="7351" as="targetPoint" />
            <Array as="points">
              <mxPoint x="1150" y="7121" />
              <mxPoint x="1150" y="7361" />
              <mxPoint x="635" y="7360" />
            </Array>
          </mxGeometry>
        </mxCell>
        <mxCell id="lrtOGTi42sTW7biP3XFJ-350" value="" style="endArrow=none;html=1;rounded=0;exitX=1;exitY=0.5;exitDx=0;exitDy=0;" edge="1" parent="1" source="lrtOGTi42sTW7biP3XFJ-344">
          <mxGeometry width="50" height="50" relative="1" as="geometry">
            <mxPoint x="860" y="7291" as="sourcePoint" />
            <mxPoint x="1150" y="7211" as="targetPoint" />
          </mxGeometry>
        </mxCell>
        <mxCell id="lrtOGTi42sTW7biP3XFJ-351" value="" style="endArrow=none;html=1;rounded=0;exitX=1;exitY=0.5;exitDx=0;exitDy=0;" edge="1" parent="1">
          <mxGeometry width="50" height="50" relative="1" as="geometry">
            <mxPoint x="1100" y="7291" as="sourcePoint" />
            <mxPoint x="1150" y="7291" as="targetPoint" />
          </mxGeometry>
        </mxCell>
        <mxCell id="lrtOGTi42sTW7biP3XFJ-352" value="" style="endArrow=none;html=1;rounded=0;" edge="1" parent="1">
          <mxGeometry width="50" height="50" relative="1" as="geometry">
            <mxPoint x="810" y="7301" as="sourcePoint" />
            <mxPoint x="810" y="7121" as="targetPoint" />
          </mxGeometry>
        </mxCell>
        <mxCell id="lrtOGTi42sTW7biP3XFJ-353" value="" style="endArrow=none;html=1;rounded=0;exitX=1;exitY=0.5;exitDx=0;exitDy=0;" edge="1" parent="1" source="lrtOGTi42sTW7biP3XFJ-366">
          <mxGeometry width="50" height="50" relative="1" as="geometry">
            <mxPoint x="720" y="7150" as="sourcePoint" />
            <mxPoint x="810" y="7211" as="targetPoint" />
          </mxGeometry>
        </mxCell>
        <mxCell id="lrtOGTi42sTW7biP3XFJ-354" value="Инстанс 1 (схема из пункта 3)" style="rounded=1;whiteSpace=wrap;html=1;fillColor=#E7FF51;" vertex="1" parent="1">
          <mxGeometry x="845" y="7391" width="260" height="60" as="geometry" />
        </mxCell>
        <mxCell id="lrtOGTi42sTW7biP3XFJ-355" value="Инстанс 2 (схема из пункта 3)" style="rounded=1;whiteSpace=wrap;html=1;fillColor=#66FF66;" vertex="1" parent="1">
          <mxGeometry x="845" y="7481" width="260" height="60" as="geometry" />
        </mxCell>
        <mxCell id="lrtOGTi42sTW7biP3XFJ-356" value="Инстанс 3 (схема из пункта 3)" style="rounded=1;whiteSpace=wrap;html=1;fillColor=#3399FF;" vertex="1" parent="1">
          <mxGeometry x="845" y="7566" width="260" height="60" as="geometry" />
        </mxCell>
        <mxCell id="lrtOGTi42sTW7biP3XFJ-357" value="" style="endArrow=classic;html=1;rounded=0;entryX=0;entryY=0.5;entryDx=0;entryDy=0;" edge="1" parent="1" target="lrtOGTi42sTW7biP3XFJ-354">
          <mxGeometry width="50" height="50" relative="1" as="geometry">
            <mxPoint x="815" y="7421" as="sourcePoint" />
            <mxPoint x="915" y="7421" as="targetPoint" />
          </mxGeometry>
        </mxCell>
        <mxCell id="lrtOGTi42sTW7biP3XFJ-358" value="" style="endArrow=classic;html=1;rounded=0;entryX=0;entryY=0.5;entryDx=0;entryDy=0;" edge="1" parent="1" target="lrtOGTi42sTW7biP3XFJ-355">
          <mxGeometry width="50" height="50" relative="1" as="geometry">
            <mxPoint x="815" y="7511" as="sourcePoint" />
            <mxPoint x="915" y="7421" as="targetPoint" />
          </mxGeometry>
        </mxCell>
        <mxCell id="lrtOGTi42sTW7biP3XFJ-359" value="" style="endArrow=classic;html=1;rounded=0;entryX=0;entryY=0.5;entryDx=0;entryDy=0;" edge="1" parent="1" target="lrtOGTi42sTW7biP3XFJ-356">
          <mxGeometry width="50" height="50" relative="1" as="geometry">
            <mxPoint x="815" y="7601" as="sourcePoint" />
            <mxPoint x="915" y="7421" as="targetPoint" />
          </mxGeometry>
        </mxCell>
        <mxCell id="lrtOGTi42sTW7biP3XFJ-360" value="" style="endArrow=classic;html=1;rounded=0;entryX=0.5;entryY=1;entryDx=0;entryDy=0;" edge="1" parent="1" target="lrtOGTi42sTW7biP3XFJ-397">
          <mxGeometry width="50" height="50" relative="1" as="geometry">
            <mxPoint x="1105" y="7421" as="sourcePoint" />
            <mxPoint x="770" y="7651" as="targetPoint" />
            <Array as="points">
              <mxPoint x="1155" y="7421" />
              <mxPoint x="1155" y="7661" />
              <mxPoint x="635" y="7660" />
            </Array>
          </mxGeometry>
        </mxCell>
        <mxCell id="lrtOGTi42sTW7biP3XFJ-361" value="" style="endArrow=none;html=1;rounded=0;exitX=1;exitY=0.5;exitDx=0;exitDy=0;" edge="1" parent="1" source="lrtOGTi42sTW7biP3XFJ-355">
          <mxGeometry width="50" height="50" relative="1" as="geometry">
            <mxPoint x="865" y="7591" as="sourcePoint" />
            <mxPoint x="1155" y="7511" as="targetPoint" />
          </mxGeometry>
        </mxCell>
        <mxCell id="lrtOGTi42sTW7biP3XFJ-362" value="" style="endArrow=none;html=1;rounded=0;exitX=1;exitY=0.5;exitDx=0;exitDy=0;" edge="1" parent="1">
          <mxGeometry width="50" height="50" relative="1" as="geometry">
            <mxPoint x="1105" y="7591" as="sourcePoint" />
            <mxPoint x="1155" y="7591" as="targetPoint" />
          </mxGeometry>
        </mxCell>
        <mxCell id="lrtOGTi42sTW7biP3XFJ-363" value="" style="endArrow=none;html=1;rounded=0;" edge="1" parent="1">
          <mxGeometry width="50" height="50" relative="1" as="geometry">
            <mxPoint x="815" y="7601" as="sourcePoint" />
            <mxPoint x="815" y="7421" as="targetPoint" />
          </mxGeometry>
        </mxCell>
        <mxCell id="lrtOGTi42sTW7biP3XFJ-364" value="" style="endArrow=none;html=1;rounded=0;exitX=1;exitY=0.5;exitDx=0;exitDy=0;" edge="1" parent="1" source="lrtOGTi42sTW7biP3XFJ-397">
          <mxGeometry width="50" height="50" relative="1" as="geometry">
            <mxPoint x="720" y="7500" as="sourcePoint" />
            <mxPoint x="815" y="7511" as="targetPoint" />
          </mxGeometry>
        </mxCell>
        <mxCell id="lrtOGTi42sTW7biP3XFJ-365" value="Сервис pymongo-api" style="rounded=1;whiteSpace=wrap;html=1;" vertex="1" parent="1">
          <mxGeometry x="575" y="6950" width="120" height="60" as="geometry" />
        </mxCell>
        <mxCell id="lrtOGTi42sTW7biP3XFJ-366" value="Сервис pymongo-api" style="rounded=1;whiteSpace=wrap;html=1;" vertex="1" parent="1">
          <mxGeometry x="575" y="7180" width="120" height="60" as="geometry" />
        </mxCell>
        <mxCell id="lrtOGTi42sTW7biP3XFJ-367" value="Actor" style="shape=umlActor;verticalLabelPosition=bottom;verticalAlign=top;html=1;outlineConnect=0;" vertex="1" parent="1">
          <mxGeometry x="100" y="6945" width="30" height="60" as="geometry" />
        </mxCell>
        <mxCell id="lrtOGTi42sTW7biP3XFJ-368" value="Actor" style="shape=umlActor;verticalLabelPosition=bottom;verticalAlign=top;html=1;outlineConnect=0;" vertex="1" parent="1">
          <mxGeometry x="100" y="7370" width="30" height="60" as="geometry" />
        </mxCell>
        <mxCell id="lrtOGTi42sTW7biP3XFJ-369" value="Actor" style="shape=umlActor;verticalLabelPosition=bottom;verticalAlign=top;html=1;outlineConnect=0;" vertex="1" parent="1">
          <mxGeometry x="140" y="7370" width="30" height="60" as="geometry" />
        </mxCell>
        <mxCell id="lrtOGTi42sTW7biP3XFJ-370" value="Покупатели" style="text;html=1;align=center;verticalAlign=middle;whiteSpace=wrap;rounded=0;" vertex="1" parent="1">
          <mxGeometry x="100" y="7035" width="60" height="30" as="geometry" />
        </mxCell>
        <mxCell id="lrtOGTi42sTW7biP3XFJ-371" value="Продавцы" style="text;html=1;align=center;verticalAlign=middle;whiteSpace=wrap;rounded=0;" vertex="1" parent="1">
          <mxGeometry x="105" y="7451" width="60" height="30" as="geometry" />
        </mxCell>
        <mxCell id="lrtOGTi42sTW7biP3XFJ-372" value="Административная панель ИМ/Nginx" style="rounded=1;whiteSpace=wrap;html=1;" vertex="1" parent="1">
          <mxGeometry x="210" y="7370" width="120" height="60" as="geometry" />
        </mxCell>
        <mxCell id="lrtOGTi42sTW7biP3XFJ-373" value="" style="endArrow=classic;html=1;rounded=0;entryX=0.5;entryY=1;entryDx=0;entryDy=0;" edge="1" parent="1" target="lrtOGTi42sTW7biP3XFJ-324">
          <mxGeometry width="50" height="50" relative="1" as="geometry">
            <mxPoint x="260" y="7370" as="sourcePoint" />
            <mxPoint x="320.03999999999996" y="7209.98" as="targetPoint" />
          </mxGeometry>
        </mxCell>
        <mxCell id="lrtOGTi42sTW7biP3XFJ-374" value="Сайт React/Nginx" style="rounded=1;whiteSpace=wrap;html=1;" vertex="1" parent="1">
          <mxGeometry x="190" y="6945" width="120" height="60" as="geometry" />
        </mxCell>
        <mxCell id="lrtOGTi42sTW7biP3XFJ-375" value="" style="endArrow=classic;html=1;rounded=0;entryX=0;entryY=0.5;entryDx=0;entryDy=0;" edge="1" parent="1" target="lrtOGTi42sTW7biP3XFJ-365">
          <mxGeometry width="50" height="50" relative="1" as="geometry">
            <mxPoint x="360" y="7090" as="sourcePoint" />
            <mxPoint x="650" y="6740" as="targetPoint" />
            <Array as="points">
              <mxPoint x="490" y="7020" />
            </Array>
          </mxGeometry>
        </mxCell>
        <mxCell id="lrtOGTi42sTW7biP3XFJ-376" value="&lt;font face=&quot;Helvetica&quot; style=&quot;font-size: 12px;&quot;&gt;Получить данные приложения&lt;/font&gt;" style="text;html=1;align=center;verticalAlign=middle;whiteSpace=wrap;rounded=0;" vertex="1" parent="1">
          <mxGeometry x="430" y="6911" width="170" height="30" as="geometry" />
        </mxCell>
        <mxCell id="lrtOGTi42sTW7biP3XFJ-380" value="" style="endArrow=classic;html=1;rounded=0;entryX=0.967;entryY=0.65;entryDx=0;entryDy=0;entryPerimeter=0;" edge="1" parent="1" target="lrtOGTi42sTW7biP3XFJ-327">
          <mxGeometry width="50" height="50" relative="1" as="geometry">
            <mxPoint x="560" y="7235" as="sourcePoint" />
            <mxPoint x="529" y="7265" as="targetPoint" />
          </mxGeometry>
        </mxCell>
        <mxCell id="lrtOGTi42sTW7biP3XFJ-381" value="&lt;font style=&quot;font-size: 12px;&quot;&gt;&lt;b&gt;2. Хэшированное ш&lt;span style=&quot;color: rgba(0, 0, 0, 0.85); font-family: &amp;quot;YS Text&amp;quot;, sans-serif; text-align: left; white-space-collapse: preserve-breaks; background-color: rgb(255, 255, 255);&quot;&gt;ардирование в MongoDB (2 шарда)&lt;/span&gt;&lt;/b&gt;&lt;/font&gt;" style="text;html=1;align=center;verticalAlign=middle;whiteSpace=wrap;rounded=0;" vertex="1" parent="1">
          <mxGeometry x="120" y="4630" width="570" height="40" as="geometry" />
        </mxCell>
        <mxCell id="lrtOGTi42sTW7biP3XFJ-382" value="MongoDBases Сегмент 1&lt;div&gt;&lt;br&gt;&lt;/div&gt;&lt;div&gt;&lt;br&gt;&lt;/div&gt;&lt;div&gt;&lt;br&gt;&lt;/div&gt;&lt;div&gt;&lt;br&gt;&lt;/div&gt;&lt;div&gt;&lt;br&gt;&lt;/div&gt;&lt;div&gt;&lt;br&gt;&lt;/div&gt;&lt;div&gt;&lt;br&gt;&lt;/div&gt;&lt;div&gt;&lt;br&gt;&lt;/div&gt;&lt;div&gt;&lt;br&gt;&lt;/div&gt;" style="shape=cylinder3;whiteSpace=wrap;html=1;boundedLbl=1;backgroundOutline=1;size=15;" vertex="1" parent="1">
          <mxGeometry x="671" y="4710" width="170" height="140" as="geometry" />
        </mxCell>
        <mxCell id="lrtOGTi42sTW7biP3XFJ-383" value="pymongo-api" style="rounded=1;whiteSpace=wrap;html=1;" vertex="1" parent="1">
          <mxGeometry x="91" y="4800" width="120" height="60" as="geometry" />
        </mxCell>
        <mxCell id="lrtOGTi42sTW7biP3XFJ-384" style="edgeStyle=orthogonalEdgeStyle;rounded=0;orthogonalLoop=1;jettySize=auto;html=1;exitX=1;exitY=0.5;exitDx=0;exitDy=0;entryX=0;entryY=0.5;entryDx=0;entryDy=0;entryPerimeter=0;" edge="1" parent="1" source="lrtOGTi42sTW7biP3XFJ-383">
          <mxGeometry relative="1" as="geometry">
            <mxPoint x="291" y="4830" as="targetPoint" />
          </mxGeometry>
        </mxCell>
        <mxCell id="lrtOGTi42sTW7biP3XFJ-385" value="Драйвер моста" style="rounded=1;whiteSpace=wrap;html=1;" vertex="1" parent="1">
          <mxGeometry x="291" y="4800" width="120" height="60" as="geometry" />
        </mxCell>
        <mxCell id="lrtOGTi42sTW7biP3XFJ-386" value="Роутер (mongos_router)" style="rounded=1;whiteSpace=wrap;html=1;" vertex="1" parent="1">
          <mxGeometry x="451" y="4800" width="120" height="60" as="geometry" />
        </mxCell>
        <mxCell id="lrtOGTi42sTW7biP3XFJ-387" value="" style="endArrow=classic;html=1;rounded=0;exitX=1;exitY=0.5;exitDx=0;exitDy=0;entryX=0;entryY=0.5;entryDx=0;entryDy=0;" edge="1" parent="1" source="lrtOGTi42sTW7biP3XFJ-385" target="lrtOGTi42sTW7biP3XFJ-386">
          <mxGeometry width="50" height="50" relative="1" as="geometry">
            <mxPoint x="621" y="4790" as="sourcePoint" />
            <mxPoint x="671" y="4740" as="targetPoint" />
          </mxGeometry>
        </mxCell>
        <mxCell id="lrtOGTi42sTW7biP3XFJ-388" value="" style="endArrow=classic;html=1;rounded=0;entryX=1;entryY=0.75;entryDx=0;entryDy=0;exitX=0;exitY=0.75;exitDx=0;exitDy=0;" edge="1" parent="1" source="lrtOGTi42sTW7biP3XFJ-386" target="lrtOGTi42sTW7biP3XFJ-385">
          <mxGeometry width="50" height="50" relative="1" as="geometry">
            <mxPoint x="621" y="4790" as="sourcePoint" />
            <mxPoint x="671" y="4740" as="targetPoint" />
          </mxGeometry>
        </mxCell>
        <mxCell id="lrtOGTi42sTW7biP3XFJ-389" value="MongoDB Сегмент 2&lt;div&gt;&lt;br&gt;&lt;/div&gt;&lt;div&gt;&lt;br&gt;&lt;/div&gt;&lt;div&gt;&lt;br&gt;&lt;/div&gt;&lt;div&gt;&lt;br&gt;&lt;/div&gt;&lt;div&gt;&lt;br&gt;&lt;/div&gt;&lt;div&gt;&lt;br&gt;&lt;/div&gt;&lt;div&gt;&lt;br&gt;&lt;/div&gt;&lt;div&gt;&lt;br&gt;&lt;/div&gt;&lt;div&gt;&lt;br&gt;&lt;/div&gt;" style="shape=cylinder3;whiteSpace=wrap;html=1;boundedLbl=1;backgroundOutline=1;size=15;" vertex="1" parent="1">
          <mxGeometry x="671" y="4881" width="180" height="140" as="geometry" />
        </mxCell>
        <mxCell id="lrtOGTi42sTW7biP3XFJ-390" value="" style="endArrow=classic;html=1;rounded=0;exitX=1;exitY=0.25;exitDx=0;exitDy=0;entryX=0;entryY=0.5;entryDx=0;entryDy=0;entryPerimeter=0;" edge="1" parent="1" source="lrtOGTi42sTW7biP3XFJ-386" target="lrtOGTi42sTW7biP3XFJ-382">
          <mxGeometry width="50" height="50" relative="1" as="geometry">
            <mxPoint x="621" y="4910" as="sourcePoint" />
            <mxPoint x="671" y="4860" as="targetPoint" />
          </mxGeometry>
        </mxCell>
        <mxCell id="lrtOGTi42sTW7biP3XFJ-391" value="" style="endArrow=classic;html=1;rounded=0;entryX=-0.003;entryY=0.533;entryDx=0;entryDy=0;entryPerimeter=0;exitX=1;exitY=0.75;exitDx=0;exitDy=0;" edge="1" parent="1" source="lrtOGTi42sTW7biP3XFJ-386" target="lrtOGTi42sTW7biP3XFJ-389">
          <mxGeometry width="50" height="50" relative="1" as="geometry">
            <mxPoint x="621" y="4910" as="sourcePoint" />
            <mxPoint x="671" y="4860" as="targetPoint" />
          </mxGeometry>
        </mxCell>
        <mxCell id="lrtOGTi42sTW7biP3XFJ-392" value="Конфигурационный сервер" style="rounded=1;whiteSpace=wrap;html=1;" vertex="1" parent="1">
          <mxGeometry x="451" y="4910" width="120" height="60" as="geometry" />
        </mxCell>
        <mxCell id="lrtOGTi42sTW7biP3XFJ-393" value="" style="endArrow=classic;html=1;rounded=0;exitX=0.5;exitY=1;exitDx=0;exitDy=0;entryX=0.5;entryY=0;entryDx=0;entryDy=0;" edge="1" parent="1" source="lrtOGTi42sTW7biP3XFJ-386" target="lrtOGTi42sTW7biP3XFJ-392">
          <mxGeometry width="50" height="50" relative="1" as="geometry">
            <mxPoint x="621" y="5030" as="sourcePoint" />
            <mxPoint x="671" y="4980" as="targetPoint" />
          </mxGeometry>
        </mxCell>
        <mxCell id="lrtOGTi42sTW7biP3XFJ-394" value="" style="endArrow=classic;html=1;rounded=0;exitX=-0.003;exitY=0.608;exitDx=0;exitDy=0;exitPerimeter=0;entryX=1;entryY=0;entryDx=0;entryDy=0;" edge="1" parent="1" source="lrtOGTi42sTW7biP3XFJ-382" target="lrtOGTi42sTW7biP3XFJ-392">
          <mxGeometry width="50" height="50" relative="1" as="geometry">
            <mxPoint x="621" y="5030" as="sourcePoint" />
            <mxPoint x="671" y="4980" as="targetPoint" />
          </mxGeometry>
        </mxCell>
        <mxCell id="lrtOGTi42sTW7biP3XFJ-395" value="" style="endArrow=classic;html=1;rounded=0;exitX=0;exitY=0.654;exitDx=0;exitDy=0;exitPerimeter=0;entryX=1;entryY=1;entryDx=0;entryDy=0;" edge="1" parent="1" source="lrtOGTi42sTW7biP3XFJ-389" target="lrtOGTi42sTW7biP3XFJ-392">
          <mxGeometry width="50" height="50" relative="1" as="geometry">
            <mxPoint x="621" y="5030" as="sourcePoint" />
            <mxPoint x="671" y="4980" as="targetPoint" />
          </mxGeometry>
        </mxCell>
        <mxCell id="lrtOGTi42sTW7biP3XFJ-396" value="" style="endArrow=classic;html=1;rounded=0;exitX=1;exitY=0.5;exitDx=0;exitDy=0;entryX=0;entryY=0.5;entryDx=0;entryDy=0;" edge="1" parent="1" source="lrtOGTi42sTW7biP3XFJ-324" target="lrtOGTi42sTW7biP3XFJ-325">
          <mxGeometry width="50" height="50" relative="1" as="geometry">
            <mxPoint x="560" y="7060" as="sourcePoint" />
            <mxPoint x="610" y="7010" as="targetPoint" />
          </mxGeometry>
        </mxCell>
        <mxCell id="lrtOGTi42sTW7biP3XFJ-397" value="Сервис pymongo-api" style="rounded=1;whiteSpace=wrap;html=1;" vertex="1" parent="1">
          <mxGeometry x="575" y="7460" width="120" height="60" as="geometry" />
        </mxCell>
        <mxCell id="lrtOGTi42sTW7biP3XFJ-399" value="" style="endArrow=none;html=1;rounded=0;entryX=0;entryY=1;entryDx=0;entryDy=0;" edge="1" parent="1" target="lrtOGTi42sTW7biP3XFJ-365">
          <mxGeometry width="50" height="50" relative="1" as="geometry">
            <mxPoint x="560" y="7240" as="sourcePoint" />
            <mxPoint x="610" y="7210" as="targetPoint" />
          </mxGeometry>
        </mxCell>
        <mxCell id="lrtOGTi42sTW7biP3XFJ-400" value="" style="endArrow=none;html=1;rounded=0;exitX=0;exitY=0;exitDx=0;exitDy=0;" edge="1" parent="1" source="lrtOGTi42sTW7biP3XFJ-397">
          <mxGeometry width="50" height="50" relative="1" as="geometry">
            <mxPoint x="560" y="7260" as="sourcePoint" />
            <mxPoint x="560" y="7240" as="targetPoint" />
          </mxGeometry>
        </mxCell>
        <mxCell id="lrtOGTi42sTW7biP3XFJ-401" value="" style="endArrow=none;html=1;rounded=0;entryX=0;entryY=0.5;entryDx=0;entryDy=0;" edge="1" parent="1" target="lrtOGTi42sTW7biP3XFJ-366">
          <mxGeometry width="50" height="50" relative="1" as="geometry">
            <mxPoint x="560" y="7240" as="sourcePoint" />
            <mxPoint x="610" y="7210" as="targetPoint" />
          </mxGeometry>
        </mxCell>
        <mxCell id="lrtOGTi42sTW7biP3XFJ-402" value="" style="endArrow=classic;html=1;rounded=0;exitX=1.005;exitY=0.077;exitDx=0;exitDy=0;entryX=0;entryY=0;entryDx=0;entryDy=0;exitPerimeter=0;" edge="1" parent="1" source="lrtOGTi42sTW7biP3XFJ-324" target="lrtOGTi42sTW7biP3XFJ-366">
          <mxGeometry width="50" height="50" relative="1" as="geometry">
            <mxPoint x="368" y="7106" as="sourcePoint" />
            <mxPoint x="585" y="6990" as="targetPoint" />
            <Array as="points">
              <mxPoint x="500" y="7070" />
            </Array>
          </mxGeometry>
        </mxCell>
        <mxCell id="lrtOGTi42sTW7biP3XFJ-403" value="" style="endArrow=classic;html=1;rounded=0;entryX=0;entryY=0.5;entryDx=0;entryDy=0;" edge="1" parent="1" source="lrtOGTi42sTW7biP3XFJ-324" target="lrtOGTi42sTW7biP3XFJ-397">
          <mxGeometry width="50" height="50" relative="1" as="geometry">
            <mxPoint x="368" y="7106" as="sourcePoint" />
            <mxPoint x="585" y="6990" as="targetPoint" />
            <Array as="points">
              <mxPoint x="420" y="7400" />
            </Array>
          </mxGeometry>
        </mxCell>
        <mxCell id="lrtOGTi42sTW7biP3XFJ-404" value="Сервис pymongo-api" style="rounded=1;whiteSpace=wrap;html=1;" vertex="1" parent="1">
          <mxGeometry x="599" y="6580" width="120" height="60" as="geometry" />
        </mxCell>
        <mxCell id="lrtOGTi42sTW7biP3XFJ-405" value="" style="endArrow=classic;html=1;rounded=0;exitX=1;exitY=0.5;exitDx=0;exitDy=0;entryX=0;entryY=0.5;entryDx=0;entryDy=0;" edge="1" parent="1" source="lrtOGTi42sTW7biP3XFJ-310" target="lrtOGTi42sTW7biP3XFJ-404">
          <mxGeometry width="50" height="50" relative="1" as="geometry">
            <mxPoint x="560" y="6900" as="sourcePoint" />
            <mxPoint x="610" y="6850" as="targetPoint" />
          </mxGeometry>
        </mxCell>
        <mxCell id="lrtOGTi42sTW7biP3XFJ-406" value="" style="endArrow=classic;html=1;rounded=0;entryX=1;entryY=0.5;entryDx=0;entryDy=0;exitX=0.033;exitY=0.883;exitDx=0;exitDy=0;exitPerimeter=0;" edge="1" parent="1" source="lrtOGTi42sTW7biP3XFJ-404" target="lrtOGTi42sTW7biP3XFJ-313">
          <mxGeometry width="50" height="50" relative="1" as="geometry">
            <mxPoint x="560" y="6900" as="sourcePoint" />
            <mxPoint x="610" y="6850" as="targetPoint" />
          </mxGeometry>
        </mxCell>
      </root>
    </mxGraphModel>
  </diagram>
</mxfile>
